<svg width="125" height="15" viewBox="0 0 125 15" fill="none" xmlns="http://www.w3.org/2000/svg">
<mask id="mask0_7645_120393" style="mask-type:luminance" maskUnits="userSpaceOnUse" x="0" y="0" width="125" height="15">
<path d="M124.891 0.525391H0.5V14.9262H124.891V0.525391Z" fill="white"/>
</mask>
<g mask="url(#mask0_7645_120393)">
<path d="M0.501953 14.7006V0.525391H1.98772V6.87894C2.79495 5.68792 4.18854 5.09018 5.66159 5.09018C8.55368 5.09018 10.5463 7.35084 10.5463 10.016C10.5463 12.6512 8.58064 14.9014 5.66159 14.9014C4.23622 14.9014 2.94273 14.3561 2.10371 13.2489C2.0624 13.1951 2.02426 13.1411 1.98613 13.0857V14.7006H0.501953ZM5.40735 13.5591C7.59547 13.5591 8.99699 12.0415 8.99699 9.99505C8.99699 8.01302 7.64314 6.41152 5.42959 6.41152C3.24942 6.41152 1.90508 7.98455 1.90508 9.99505C1.90349 11.9606 3.19539 13.5591 5.40735 13.5591Z" fill="#586E8B"/>
<path d="M19.7183 14.9C17.1726 14.9 15.5137 13.1007 15.5137 10.7562V5.29102H17.0217V10.6962C17.0217 12.2648 17.9418 13.5592 19.7183 13.5592C21.5235 13.5592 22.4372 12.2978 22.4372 10.6962V5.29102H23.923V10.7577C23.923 13.1352 22.3021 14.9 19.7183 14.9Z" fill="#586E8B"/>
<path d="M31.0969 14.7019V6.55358H28.5703V5.29216H31.0969V1.32812H32.6049V5.29216H36.9573V1.32812H38.4653V5.29216H40.9712V6.55358H38.4653V14.7019H36.9573V6.55358H32.6049V14.7019H31.0969Z" fill="#586E8B"/>
<path d="M50.0149 14.8996C47.083 14.8996 44.833 12.7003 44.833 9.95425C44.833 7.21868 47.1196 5.08984 50.0149 5.08984C52.934 5.08984 55.1968 7.19771 55.1968 9.95425C55.1968 12.7123 52.9578 14.8996 50.0149 14.8996ZM50.0149 13.5393C52.1919 13.5393 53.6681 11.9648 53.6681 9.95576C53.6681 7.96325 52.1553 6.43216 50.0149 6.43216C47.8681 6.43216 46.3839 7.96325 46.3839 9.95576C46.3839 11.9692 47.8267 13.5393 50.0149 13.5393Z" fill="#586E8B"/>
<path d="M60.3965 14.7003V5.2906H61.8823V6.67336C62.6625 5.6097 63.8813 5.08984 65.2383 5.08984C67.5266 5.08984 69.1664 6.79171 69.1664 8.93407V14.7003H67.6585V9.17373C67.6585 7.55875 66.5891 6.39022 64.8347 6.39022C63.144 6.39022 61.8823 7.52729 61.8823 9.15273V14.6988H60.3965V14.7003Z" fill="#586E8B"/>
<path d="M80.8439 14.7006H79.3584V0.525391H80.8439V6.87894C80.8856 6.81901 80.9265 6.76058 80.9715 6.70215C81.3671 6.1883 81.8735 5.7913 82.4906 5.51115C83.107 5.231 83.7827 5.09018 84.5178 5.09018C85.4383 5.09018 86.2657 5.3074 87.0032 5.74036C87.7391 6.17481 88.3242 6.76208 88.7559 7.50216C89.1885 8.24376 89.4044 9.0812 89.4044 10.0145C89.4044 10.9359 89.1917 11.7628 88.7672 12.4969C88.3426 13.231 87.7584 13.8153 87.0144 14.2482C86.2705 14.6827 85.4399 14.8984 84.5194 14.8984C83.7554 14.8984 83.0685 14.7516 82.4601 14.4579C81.8518 14.1643 81.3527 13.7598 80.9634 13.246C80.9217 13.192 80.884 13.1381 80.8471 13.0827V14.7006H80.8439ZM84.2618 13.5591C84.9712 13.5591 85.594 13.4092 86.1309 13.1081C86.6694 12.807 87.0907 12.3875 87.394 11.8467C87.699 11.3059 87.8507 10.6886 87.8507 9.99505C87.8507 9.28789 87.6974 8.66767 87.394 8.13287C87.0891 7.59953 86.6678 7.17856 86.1309 6.87144C85.5924 6.56433 84.9777 6.41152 84.2827 6.41152C83.5885 6.41152 82.977 6.56433 82.4457 6.87144C81.9152 7.17856 81.5003 7.59953 81.2034 8.13287C80.9065 8.66623 80.7564 9.28789 80.7564 9.99505C80.7564 10.6886 80.9065 11.3059 81.2034 11.8467C81.5003 12.3875 81.9104 12.807 82.4345 13.1081C82.9609 13.4092 83.5692 13.5591 84.2618 13.5591Z" fill="#586E8B"/>
<path d="M94.623 14.7006V0.525391H96.1085V14.7006H94.623Z" fill="#586E8B"/>
<path d="M105.917 14.9C103.372 14.9 101.713 13.1007 101.713 10.7562V5.29102H103.221V10.6962C103.221 12.2648 104.141 13.5592 105.917 13.5592C107.722 13.5592 108.636 12.2978 108.636 10.6962V5.29102H110.122V10.7577C110.122 13.1352 108.501 14.9 105.917 14.9Z" fill="#586E8B"/>
<path fill-rule="evenodd" clip-rule="evenodd" d="M123.347 12.3392C122.663 13.1153 121.698 13.5617 120.375 13.5797C118.36 13.5752 116.888 12.4247 116.612 10.516H124.792C125.359 7.6037 123.372 5.09284 120.226 5.08984C117.414 5.08984 115.088 7.09733 115.088 9.97523C115.088 12.582 117.152 14.8951 120.354 14.9011C122.04 14.9011 123.37 14.2479 124.304 13.2591L123.347 12.3392ZM116.618 9.31605L123.445 9.31757C123.307 7.5213 122.105 6.39171 120.184 6.39321C118.142 6.39471 116.91 7.55875 116.618 9.31605Z" fill="#586E8B"/>
</g>
</svg>
