<svg width="63" height="20" viewBox="0 0 63 20" fill="none" xmlns="http://www.w3.org/2000/svg">
<path fill-rule="evenodd" clip-rule="evenodd" d="M41.6191 18H45.7883L47.5795 12.9671L49.442 11.4245L50.909 15.976C51.3628 17.3827 51.8298 18 52.8485 18H56.0405L52.7475 9.06865L60.6668 2H55.5525L50.7452 7.03299C50.1852 7.6189 49.6188 8.19558 49.0508 8.88438H49.0024L51.4028 2H47.2332L41.6191 18Z" fill="#1AB248"/>
<path fill-rule="evenodd" clip-rule="evenodd" d="M41.4406 2.00063C42.7481 2.00084 44.0163 2.00105 45.0783 2.00114L44.2178 4.64281C43.9473 5.47279 43.2608 5.86987 41.7477 5.86987C39.1206 5.86987 35.2332 5.86941 32.6058 5.86895L33.4663 3.2273C33.7367 2.39685 34.4231 2 35.9363 2C37.5014 2 39.5138 2.00032 41.4406 2.00063ZM33.8144 8.06514C36.4414 8.06514 40.329 8.0656 42.9564 8.06629L42.0959 10.7078C41.8254 11.5381 41.1389 11.9349 39.6257 11.9349C36.9986 11.9349 33.1112 11.9344 30.4838 11.9338L31.3444 9.29246C31.6147 8.4621 32.3012 8.06514 33.8144 8.06514ZM40.7302 14.131C38.1029 14.1306 34.2156 14.1301 31.5884 14.1301C30.075 14.1301 29.3887 14.5272 29.1184 15.357L28.2578 17.999C30.8852 17.9992 34.7726 18 37.3999 18C38.9129 18 39.5994 17.6028 39.8698 16.7726L40.7302 14.131Z" fill="#1AB248"/>
<path fill-rule="evenodd" clip-rule="evenodd" d="M22.7159 5.85371L24.9533 5.85463C26.8597 5.85509 26.4245 8.15943 25.4597 10.4053C24.6096 12.3848 23.1029 14.1316 21.3054 14.1314L17.5754 14.1309C16.0876 14.1309 15.4017 14.528 15.1124 15.3577L14.1914 17.9995L16.9266 18L19.6002 17.9784C21.9713 17.9595 23.9125 17.7936 26.1825 15.8192C28.5814 13.7334 31.3784 8.31478 30.8992 5.18072C30.5238 2.72477 29.1603 2.00114 25.8586 2.00091L19.8418 2L16.3386 11.9235L18.5645 11.9262C19.8892 11.9277 20.5541 11.9438 21.2588 10.1085L22.7159 5.85371Z" fill="#1AB248"/>
<path fill-rule="evenodd" clip-rule="evenodd" d="M12.429 5.8675L10.7461 5.86796C7.3749 5.86956 4.48611 14.1327 8.47215 14.1314L11.0333 14.1309C12.5104 14.1309 13.6069 14.653 13.1214 16.0606L12.4523 17.9995L9.73604 18L7.52659 17.9784C4.70003 17.9511 2.87605 16.6025 2.2193 14.5547C1.5086 12.3388 2.51198 7.71699 5.42419 4.75629C7.11394 3.03868 9.45459 2.00114 12.4556 2.00091L18 2L17.1333 4.42162C16.5733 5.98625 15.4293 5.86956 14.7764 5.86933L12.429 5.8675Z" fill="#1AB248"/>
</svg>
