<svg width="114" height="48" viewBox="0 0 114 48" fill="none" xmlns="http://www.w3.org/2000/svg">
<path d="M91.5079 20.6542V20.7443C91.5079 22.4576 90.4777 24.5316 88.0427 24.5316C85.2331 24.5316 83.8282 22.0068 83.7346 18.2195H94.9732V18.1293C95.6287 13.8912 94.2239 8.39062 88.0427 8.39062C83.079 8.39062 80.082 11.9975 80.082 17.949C80.082 23.8102 82.9853 27.327 87.949 27.327C91.8825 27.327 94.4112 24.712 94.7858 21.7362V21.5559L91.5079 20.6542ZM83.8282 16.0553C84.1092 13.0796 85.6077 11.0958 88.0427 11.0958C90.1031 11.0958 91.7889 12.4484 91.6952 16.0553H83.8282Z" fill="#52525B"/>
<path d="M72.3081 24.3464H71.9335L67.9064 8.65625H64.1602L69.0302 26.9614H74.7432L79.8005 8.65625H76.0543L72.3081 24.3464Z" fill="#52525B"/>
<path d="M62.4768 8.65625H58.8242V26.9614H62.4768V8.65625Z" fill="#52525B"/>
<path d="M55.8264 3.42773H52.1738V26.8727H55.8264V3.42773Z" fill="#52525B"/>
<path d="M49.0822 3.42773H45.4297V26.8727H49.0822V3.42773Z" fill="#52525B"/>
<path d="M39.1573 8.65625V18.5753C39.1573 22.1822 37.7525 24.7071 35.4111 24.7071C33.4444 24.7071 32.3205 23.3545 32.3205 20.4689V8.65625H28.668V21.1903C28.668 25.1579 30.822 27.3221 34.0063 27.3221C36.7223 27.3221 38.5017 25.4284 39.251 22.6331H39.7193L40.0002 26.9614H42.9035V8.65625H39.1573Z" fill="#52525B"/>
<path d="M105.931 8.56445C103.964 8.56445 101.81 9.82688 101.061 12.9829H100.593L100.405 8.65463H97.502V26.9598H101.154V18.6638C101.154 13.7945 102.559 12.3517 105.088 12.3517C105.463 12.3517 105.931 12.4419 106.493 12.6222L107.336 8.65463C106.68 8.56445 106.306 8.56445 105.931 8.56445Z" fill="#52525B"/>
<path d="M32.6008 43.7316H28.5737C28.3863 43.7316 28.2927 43.6414 28.3864 43.4611L28.48 43.2807C28.5737 43.1004 28.6673 43.0102 28.8546 43.0102C30.1658 43.0102 30.7277 42.1987 31.2897 40.305L33.1628 34.1733C33.4437 33.1814 33.2564 33.001 32.1325 33.001C31.9452 33.001 31.8516 32.9108 31.9452 32.7305L32.0389 32.46C32.1325 32.2796 32.2262 32.1895 32.4135 32.1895H35.2232C35.5041 32.1895 35.5978 32.2796 35.6914 32.6403L37.0963 41.3871L43.3711 32.7305C43.6521 32.2796 43.8394 32.2796 44.214 32.2796H47.211C47.3983 32.2796 47.492 32.3698 47.3983 32.5501L47.3047 32.7305C47.211 32.9108 47.211 33.001 46.93 33.001C45.7125 33.001 45.4316 33.1814 45.2442 34.0831L43.0902 41.9282C42.9029 42.7397 43.0902 43.0102 44.3077 43.0102C44.5887 43.0102 44.5887 43.1004 44.5887 43.2807L44.495 43.4611C44.4014 43.6414 44.3077 43.7316 44.0267 43.7316H39.4376C39.1567 43.7316 39.1567 43.6414 39.1567 43.4611L39.2503 43.2807C39.344 43.1004 39.4376 43.0102 39.7186 43.0102C40.7488 43.0102 41.1234 42.7397 41.4044 41.9282L43.7458 33.6322L36.628 43.4611C36.4407 43.6414 36.4407 43.7316 36.2534 43.7316C36.0661 43.7316 35.9724 43.6414 35.9724 43.4611L34.0993 33.7224L32.1325 40.305C31.477 42.2888 31.477 43.0102 32.7881 43.0102C33.0691 43.0102 33.0691 43.1004 33.0691 43.2807L32.9754 43.4611C32.8818 43.7316 32.7881 43.7316 32.6008 43.7316Z" fill="#52525B"/>
<path d="M50.0228 43.1836C50.0228 42.8229 50.2101 42.1917 50.5847 41.1998L50.4911 41.1096C49.1799 42.8229 48.056 43.905 46.8385 43.905C45.9956 43.905 45.5273 43.364 45.5273 42.2819C45.5273 39.3062 48.618 35.1582 51.1466 35.1582C51.8959 35.1582 52.3642 35.5189 52.6451 35.9698L52.8324 35.6091C52.9261 35.3385 53.0197 35.3386 53.3007 35.3386H53.9563C54.2373 35.3386 54.2373 35.5189 54.1436 35.7894C53.3944 37.6831 52.3642 40.2079 51.8022 42.0114C51.6149 42.5524 51.8022 42.6426 51.9895 42.6426C52.4578 42.6426 53.0197 42.0114 53.5817 41.1998C53.6753 41.1096 53.769 41.1096 53.8626 41.1096L54.0499 41.1998C54.1436 41.29 54.1436 41.29 54.0499 41.4703C53.1134 42.9131 51.8959 43.905 50.8657 43.905C50.3037 43.905 50.0228 43.6345 50.0228 43.1836ZM47.1195 41.6507C47.1195 42.1015 47.2131 42.6426 47.7751 42.6426C48.8989 42.6426 50.6784 40.3882 51.334 39.0357C51.7086 38.4044 51.8959 37.5929 51.8959 36.9617C51.8959 36.2403 51.5213 35.7894 50.8657 35.7894C49.3672 35.7894 47.1195 39.5767 47.1195 41.6507Z" fill="#52525B"/>
<path d="M58.1689 38.5848C59.2927 36.8715 60.4166 35.1582 61.7277 35.1582C62.2897 35.1582 62.6643 35.5189 62.6643 35.9698C62.6643 36.601 62.2897 37.142 61.7277 37.142C61.4468 37.142 61.2595 36.9617 61.1658 36.7813C61.0722 36.601 60.9785 36.5108 60.8848 36.5108C60.042 36.5108 58.4498 39.216 57.6069 40.9293C57.4196 41.3802 57.2323 41.7408 57.045 42.2819L56.6704 43.364C56.5767 43.6345 56.4831 43.7247 56.2021 43.7247H55.4529C55.2656 43.7247 55.1719 43.6345 55.2656 43.364C56.0148 41.3802 56.764 39.3963 57.4196 37.3224C57.7006 36.6911 57.5133 36.5108 57.326 36.5108C57.045 36.5108 56.2958 37.2322 55.7338 37.9536C55.6402 38.0437 55.5465 38.0437 55.4529 38.0437L55.2656 37.9536C55.1719 37.8634 55.1719 37.7732 55.2656 37.6831C56.2958 36.1501 57.5133 35.2484 58.4498 35.2484C59.1991 35.2484 59.3864 36.1501 58.9181 37.2322L58.1689 38.5848Z" fill="#52525B"/>
<path d="M66.1294 42.6486C65.8484 42.1076 65.3801 41.3862 65.0992 40.755C64.9119 40.4844 64.7246 40.3041 64.3499 40.3041H64.069L62.9451 43.4601C62.8515 43.7307 62.7578 43.7307 62.4768 43.7307H61.6339C61.353 43.7307 61.353 43.6405 61.4466 43.37L65.2865 32.8197C65.5675 32.1885 65.1928 32.0983 64.3499 32.0983C64.2563 32.0983 64.069 32.0082 64.1626 31.8278L64.2563 31.5573C64.3499 31.4671 64.3499 31.377 64.5372 31.377H66.8786C66.9723 31.377 66.9723 31.377 67.0659 31.4671L67.1596 31.5573C67.2532 31.6475 67.2532 31.6475 67.1596 31.7376L65.0992 37.0579H65.1928C66.1294 35.8856 67.3469 34.9839 68.5644 34.9839C69.501 34.9839 70.0629 35.5249 70.0629 36.2463C70.0629 37.7792 68.1898 39.1318 66.4103 39.7631C66.785 40.3943 67.2532 41.296 67.6279 41.837C68.0025 42.4682 68.2834 42.8289 68.4708 42.8289C68.7517 42.8289 68.939 42.5584 69.3137 42.1977C69.4073 42.1076 69.4073 42.1075 69.5946 42.1075L69.6883 42.1977C69.7819 42.2879 69.8756 42.2879 69.7819 42.4682C69.4073 43.1896 68.7517 43.8208 67.8152 43.8208C66.9723 43.911 66.5977 43.4601 66.1294 42.6486ZM64.2563 39.7631C64.7246 39.7631 65.3801 39.5827 65.8484 39.4024C67.0659 38.9515 68.3771 37.7792 68.3771 36.7873C68.3771 36.4266 68.1898 36.066 67.7215 36.066C66.5977 36.066 64.9119 37.7792 64.2563 39.7631Z" fill="#52525B"/>
<path d="M70.4375 41.7408C70.4375 38.8553 73.5281 35.1582 75.8695 35.1582C76.8997 35.1582 77.4616 35.6992 77.4616 36.5108C77.4616 37.9536 75.7758 39.4865 72.2169 40.2079C72.1233 40.5686 72.1233 40.8391 72.1233 41.1998C72.1233 42.0114 72.4043 42.7327 73.2471 42.7327C73.9027 42.7327 74.652 42.2819 75.4012 41.3802C75.4949 41.29 75.5885 41.29 75.6822 41.29L75.7758 41.3802C75.8695 41.4703 75.8695 41.5605 75.7758 41.6507C75.0266 42.8229 73.8091 43.905 72.4979 43.905C70.9994 43.905 70.4375 42.8229 70.4375 41.7408ZM72.4979 39.5767C74.8393 39.0356 75.9631 37.6831 75.9631 36.601C75.9631 36.2403 75.8695 35.9698 75.4012 35.9698C74.4647 35.9698 73.0598 37.6831 72.4979 39.5767Z" fill="#52525B"/>
<path d="M78.4913 43.9181C77.5547 43.9181 77.5547 42.7459 77.9294 41.7539L79.9898 36.1632H79.0532C78.8659 36.1632 78.8659 36.073 78.9596 35.8927L79.1469 35.532C79.2405 35.3517 79.2405 35.3517 79.4278 35.3517H80.3644L80.8327 33.9991C80.9263 33.7285 81.02 33.6384 81.2073 33.5482C81.5819 33.458 82.0502 33.1875 82.2375 33.1875C82.4248 33.1875 82.5185 33.2777 82.4248 33.5482L81.7692 35.3517H83.455C83.6423 35.3517 83.736 35.4418 83.6423 35.6222L83.455 35.9829C83.3613 36.1632 83.3613 36.1632 83.174 36.1632H81.4882L79.3342 42.0245C79.2405 42.3852 79.3342 42.5655 79.5215 42.5655C79.8025 42.5655 80.6454 41.8441 81.1136 41.2129C81.2073 41.1227 81.3009 41.1227 81.3946 41.1227L81.5819 41.2129C81.6756 41.3031 81.6756 41.3031 81.5819 41.4834C81.02 42.5655 79.5215 43.9181 78.4913 43.9181Z" fill="#52525B"/>
<path d="M62.4768 5.50586H58.8242V6.58794H62.4768V5.50586Z" fill="#52525B"/>
<path d="M17.2397 14.787V17.4921H22.9527C23.3273 21.9106 20.6113 24.3453 17.5207 24.3453C13.3999 24.3453 10.9649 20.6482 10.9649 15.2378C10.9649 10.098 13.5872 6.31068 17.427 6.22051C20.3304 6.13034 22.5781 7.75345 22.3908 11.4506L26.3243 10.5488C26.0433 6.13034 22.6717 3.06445 17.5207 3.06445C11.2458 3.06445 7.125 8.02397 7.125 15.2378C7.125 22.5418 10.9649 27.4112 17.2397 27.4112C23.2337 27.4112 27.5418 23.4436 26.6989 14.8771V14.787H17.2397Z" fill="#52525B"/>
</svg>
