<svg width="66" height="17" viewBox="0 0 66 17" fill="none" xmlns="http://www.w3.org/2000/svg">
<path d="M25.6808 6.50822C25.6808 6.16573 25.5498 5.8496 25.2876 5.61249C24.9993 5.34904 24.7109 5.24366 24.3177 5.24366C23.5575 5.24366 23.0332 5.69153 22.9546 6.48187C22.8235 7.58836 22.8235 8.11525 22.8235 9.40615L22.8497 11.2503C22.8497 11.2503 22.9021 12.146 22.9021 12.6202C22.273 13.2788 21.4342 13.8321 20.5691 13.7794C20.0186 13.7531 19.2322 13.3052 19.206 11.7245L19.2584 9.27443L19.3895 7.64105L19.5205 6.56091C19.5205 6.19208 19.3895 5.87594 19.1273 5.61249C18.839 5.37539 18.4982 5.24366 18.1312 5.24366C17.3972 5.24366 16.9253 5.66518 16.7943 6.42918C16.5845 7.66739 16.5845 8.61581 16.5845 9.4325C16.5845 10.7234 16.5059 11.8035 16.768 13.5423C16.8991 14.4644 17.3448 15.0966 18.0263 15.7289C18.6292 16.1241 19.1797 16.4929 20.4642 16.4929C21.4342 16.4929 22.4565 15.9924 23.1119 15.4128C23.2167 16.0714 23.4264 16.4666 24.2653 16.4929C24.6323 16.4929 24.973 16.3612 25.2352 16.1241C25.5235 15.8343 25.6546 15.5182 25.6546 15.1493L25.6284 14.6751L25.6022 14.2536L25.576 13.8584L25.5235 11.8035L25.5498 9.77498L25.707 6.66629C25.6808 6.58725 25.6808 6.53456 25.6808 6.50822Z" fill="#909092"/>
<path d="M65.0544 5.37538C64.8184 5.13828 64.4514 5.00656 64.1631 5.00656C63.9009 4.98021 63.7437 4.98021 63.4815 5.0329C62.8 5.16463 61.9087 5.45442 61.0174 6.37649C60.7815 5.37538 60.1785 5.19097 59.7329 5.19097C59.2611 5.19097 58.4222 5.32269 58.4222 6.50821V15.0966C58.4222 15.966 58.8941 16.4929 59.7067 16.4929C60.598 16.4929 61.096 15.9924 61.096 15.0966C61.096 15.0966 61.0698 10.697 61.0698 10.1438C61.0436 9.22173 61.9611 8.27332 62.8262 8.03622C63.2194 7.93084 63.4291 7.87815 63.7961 7.8518C63.8223 7.8518 64.0844 7.82546 64.1107 7.82546C64.4776 7.79911 64.766 7.74642 65.0806 7.45663C65.3689 7.19318 65.5 6.79801 65.5 6.37649C65.4476 5.95497 65.3689 5.66518 65.0544 5.37538Z" fill="#909092"/>
<path d="M27.9615 0.106415C27.0964 0.106415 26.5983 0.606967 26.6245 1.47635L26.677 4.32159V4.76946L26.7294 8.22063V11.5928L26.7032 15.0703C26.7294 15.9397 27.2537 16.4402 28.1187 16.4402C28.9052 16.4402 29.377 15.966 29.4557 15.123C29.4557 15.0966 29.4819 12.8837 29.4819 12.8837V8.19429L29.4294 5.16463L29.4032 1.42366C29.377 0.606967 28.8527 0.106415 27.9615 0.106415Z" fill="#909092"/>
<path d="M32.0509 0.106415C31.1858 0.106415 30.6877 0.606967 30.7139 1.47635L30.7664 4.40063L30.7926 8.22063V11.6191L30.7664 15.0703C30.7926 15.9397 31.3169 16.4402 32.1819 16.4402C32.9684 16.4402 33.4402 15.966 33.5188 15.123C33.5188 15.0966 33.5451 12.8837 33.5451 12.8837V8.19429L33.4926 5.3227V4.74311L33.4402 1.42366C33.4402 0.606967 32.9159 0.106415 32.0509 0.106415Z" fill="#909092"/>
<path d="M15.2739 7.40394C14.9855 7.1405 14.6185 7.00877 14.1729 7.00877C10.4767 7.00877 7.17371 6.53456 5.67951 7.40394C5.07659 7.77277 4.99794 8.24698 5.02416 8.61581C5.05037 8.95829 5.20766 9.37981 5.4698 9.6696C5.83679 10.0121 6.20379 10.1965 6.62322 10.1965L7.25235 10.0384C8.37956 9.53788 10.8699 9.85402 12.3903 9.72229C12.4427 10.5126 12.7049 11.4611 10.9748 12.8837C10.1883 13.5423 8.95627 13.7531 7.82906 13.7004C4.78823 13.5423 3.84453 11.2503 3.58238 10.1965C3.11053 8.1416 3.18917 6.69263 4.52609 4.71677C5.23387 3.68932 6.7805 2.71456 8.69413 2.87263C10.6078 3.00435 11.132 4.11084 12.1806 4.66408C12.5476 4.87484 12.8097 4.98022 13.0457 4.98022C13.4389 4.98022 13.7797 4.71677 14.068 4.42697C14.3302 4.18987 14.4612 3.84739 14.4088 3.45221C14.4088 2.66187 13.5962 1.60807 12.5476 1.08118C11.4728 0.527934 10.3456 0.0273815 8.66791 0.00103659C7.56692 -0.0253083 5.41737 0.448899 3.81831 1.60807C2.48139 2.60918 1.66876 3.61028 1.01341 5.45442C0.410483 7.11415 0.384269 8.80022 0.698838 10.4863C1.11826 12.7256 2.42897 14.2009 3.52996 15.0966C4.63095 15.966 6.28243 16.5193 8.11742 16.5193C10.0835 16.5193 11.8922 15.9133 13.2554 14.6751C14.9855 13.0944 15.3525 11.5401 15.3001 9.51153C15.6671 9.24808 15.8768 8.9056 15.8244 8.40505C15.7719 8.03622 15.5884 7.69374 15.2739 7.40394Z" fill="#909092"/>
<path d="M52.4454 7.74642C52.7862 7.69373 53.1794 7.66738 53.5464 7.72007C53.9134 7.77276 54.5425 8.06256 54.8571 8.32601C54.2804 8.6158 53.3629 8.93194 52.5765 9.24808C51.7638 9.56421 51.1609 9.77497 50.2958 10.1965C50.4793 9.32711 50.7677 8.90559 51.1347 8.51042C51.5017 8.0889 52.1046 7.79911 52.4454 7.74642ZM57.2688 12.6729C57.0329 12.4358 56.7445 12.3041 56.3775 12.3041C55.9843 12.3041 55.6435 12.6202 55.3289 13.0944C55.2241 13.2525 54.8571 13.6477 54.0445 13.8584C51.9473 14.4117 51.0561 13.4896 51.0561 13.4896C50.7153 13.3315 50.5318 12.9627 50.3483 12.5675C51.0823 12.3041 52.393 11.8299 53.7561 11.2766C55.1192 10.7497 56.3251 10.2755 56.6921 10.0384C57.3736 9.6169 57.6358 9.06366 57.6096 8.45773C57.5571 7.35125 56.6397 6.35014 55.6697 5.87593C54.9357 5.48076 53.992 5.27 52.8386 5.27C51.3706 5.29635 49.7454 6.24476 48.9065 7.27221C48.0677 8.29966 47.5958 9.9067 47.5958 11.6455C47.5958 13.2262 48.2249 14.6488 49.2473 15.3601C50.3483 16.1241 51.423 16.4666 52.6551 16.5193C53.8347 16.5719 54.726 16.2822 55.7222 15.8343C57.0591 15.2547 57.7406 14.4644 57.7406 13.595C57.6882 13.1998 57.5571 12.91 57.2688 12.6729Z" fill="#909092"/>
<path d="M47.6482 5.58614C47.3599 5.3227 47.0453 5.19097 46.6783 5.19097C46.154 5.19097 45.7084 5.50711 45.4462 6.03401C45.42 6.06035 44.6074 8.14159 44.6074 8.14159C44.0569 9.53787 43.3491 10.8024 42.9297 11.7245C42.4054 10.3546 40.7801 6.03401 40.7801 6.03401C40.5442 5.48076 40.1248 5.19097 39.5481 5.19097C39.1811 5.19097 38.8403 5.32269 38.5519 5.5598C38.2636 5.82325 38.0801 6.13939 38.1063 6.53456C38.1325 6.92973 38.3947 7.53566 38.3947 7.53566L39.9675 11.4347L41.4879 15.2811C41.8549 16.1768 42.4841 16.3875 42.9297 16.3875C43.6637 16.3875 44.1355 15.966 44.2142 15.2547C44.2404 15.202 46.4686 10.6707 46.4686 10.6707C47.6482 8.1416 48.1201 6.63994 48.1201 6.53456C48.0939 6.16573 47.9366 5.82325 47.6482 5.58614Z" fill="#909092"/>
<path d="M37.2674 1.50268C36.9791 1.21289 36.6121 1.08116 36.1665 1.08116C35.7208 1.08116 35.3538 1.23923 35.0655 1.52902C34.7771 1.79247 34.6198 2.1613 34.646 2.58282C34.646 3.00434 34.8295 3.39951 35.1703 3.6893C35.4849 3.9791 35.8781 4.11082 36.2713 4.11082C36.6645 4.11082 37.0315 3.9791 37.3461 3.6893C37.6344 3.39951 37.8179 3.03068 37.7917 2.58282C37.7655 2.1613 37.582 1.76613 37.2674 1.50268Z" fill="#909092"/>
<path d="M37.4772 6.6136C37.451 6.0867 37.215 5.77056 37.0315 5.61249C36.7956 5.37539 36.4548 5.24366 36.0616 5.24366C35.6684 5.24366 35.3276 5.37539 35.0655 5.63884C34.8295 5.87594 34.6985 6.21842 34.7247 6.6136C34.7247 6.6136 34.6723 7.69374 34.6985 9.27443C34.7247 11.1186 34.8033 15.0966 34.8033 15.0966C34.8033 15.4918 34.9606 15.808 35.2228 16.0714C35.5111 16.3349 35.8519 16.4402 36.2189 16.4402C36.6121 16.4402 36.9267 16.3085 37.1888 16.0714C37.4509 15.7553 37.5558 15.4391 37.5558 15.0703C37.5558 15.0703 37.4247 11.0132 37.4247 9.11636C37.4247 7.48298 37.4772 6.6136 37.4772 6.6136Z" fill="#909092"/>
</svg>
