<svg width="66" height="18" viewBox="0 0 66 18" fill="none" xmlns="http://www.w3.org/2000/svg">
<g clip-path="url(#clip0_5612_15476)">
<path d="M8.9774 9.04337L15.2643 15.5179L15.1361 15.6354L15.0819 15.687C13.3215 17.2662 11.0148 18.0869 8.65861 17.9724C6.30239 17.8579 4.08513 16.8173 2.48435 15.0748C0.883561 13.3322 0.0273049 11.0271 0.0999783 8.6559C0.172652 6.28466 1.16844 4.03697 2.8729 2.39689C4.62533 0.784065 6.93904 -0.0694638 9.31281 0.0211981C11.6866 0.11186 13.9292 1.13941 15.555 2.88126L8.9774 9.04337Z" fill="#01B94F"/>
<path d="M2.87835 2.3939C4.63053 0.782492 6.94336 -0.0699154 9.31597 0.0212796C11.6886 0.112475 13.93 1.13993 15.5547 2.88114C15.5547 2.88114 10.3252 7.8051 10.2197 7.89108C10.2197 7.89108 9.0484 9.00026 9.05695 9.01746C9.0655 9.03466 15.2526 15.492 15.2526 15.492L15.1272 15.6124L15.0731 15.6639C11.3796 18.9313 5.71971 18.7823 2.37677 15.1481C0.771377 13.3851 -0.0766358 11.0558 0.0173032 8.66715C0.111242 6.27849 1.13953 4.02383 2.87835 2.3939Z" fill="url(#paint0_radial_5612_15476)"/>
<path d="M2.88122 2.38796C4.63479 0.778683 6.94774 -0.0717869 9.31991 0.0204641C11.6921 0.112715 13.9328 1.14027 15.5576 2.88093C15.5576 2.88093 10.4677 7.69598 10.2596 7.86508C10.2596 7.86508 9.11966 8.95993 9.13961 8.99433C9.18236 9.09751 15.2441 15.4631 15.2441 15.4631L15.1187 15.5835L15.0646 15.6351C11.3796 18.8967 5.71687 18.7362 2.38533 15.1135C0.782346 13.3554 -0.0649792 11.0315 0.0278999 8.64803C0.120779 6.26454 1.14634 4.0145 2.88122 2.38796Z" fill="url(#paint1_radial_5612_15476)"/>
<path d="M2.8871 2.38529C4.64075 0.778122 6.95268 -0.0707609 9.32347 0.0220142C11.6943 0.114789 13.9336 1.14177 15.5578 2.88113C15.5578 2.88113 10.6132 7.5844 10.294 7.83948C10.294 7.83948 9.19394 8.91713 9.21389 8.96872C9.27944 9.12349 15.2329 15.4375 15.2329 15.4375L15.1046 15.5579L15.0505 15.6066C11.377 18.8596 5.71705 18.6934 2.39121 15.0793C0.790816 13.3261 -0.0552209 11.0076 0.0376778 8.62949C0.130577 6.2514 1.15487 4.00677 2.8871 2.38529Z" fill="url(#paint2_radial_5612_15476)"/>
<path d="M2.88972 2.38256C4.6436 0.776631 6.95512 -0.0712085 9.32523 0.0220969C11.6953 0.115402 13.9339 1.14237 15.5576 2.88127C15.5576 2.88127 10.7555 7.46703 10.3308 7.81383C10.3308 7.81383 9.26497 8.87715 9.29347 8.94594C9.37897 9.1523 15.2213 15.4119 15.2213 15.4119L15.0959 15.5294C15.0959 15.5294 15.0417 15.5781 15.0417 15.581C11.3768 18.8225 5.71683 18.6448 2.39954 15.045C0.801713 13.2972 -0.0435648 10.9846 0.0482764 8.61213C0.140118 6.23969 1.16162 4.00016 2.88972 2.38256Z" fill="url(#paint3_radial_5612_15476)"/>
<path d="M2.89559 2.37662C4.64991 0.773162 6.96062 -0.0725899 9.32935 0.0217757C11.6981 0.116141 13.935 1.14306 15.5577 2.88105C15.5577 2.88105 10.901 7.36364 10.3681 7.78782C10.3681 7.78782 9.33639 8.83394 9.37058 8.91993C9.47888 9.17788 15.2129 15.383 15.21 15.3858L15.0846 15.5034L15.0305 15.5549C11.3741 18.7822 5.717 18.6016 2.40826 15.0104C0.813197 13.2671 -0.0308968 10.9597 0.0604182 8.5924C0.151733 6.22513 1.17103 3.99044 2.89559 2.37662Z" fill="url(#paint4_radial_5612_15476)"/>
<path d="M2.89829 2.3739C4.65282 0.771673 6.96313 -0.0730356 9.33118 0.0218601C11.6992 0.116756 13.9354 1.14366 15.5576 2.8812C15.5576 2.8812 11.0433 7.25487 10.405 7.75357C10.405 7.75357 9.40748 8.7825 9.45023 8.88568C9.57848 9.19522 15.2013 15.3459 15.2013 15.3459L15.0759 15.492L15.0218 15.5408C11.3711 18.7451 5.71685 18.5588 2.41381 14.9761C0.821677 13.2378 -0.02116 10.9361 0.0696314 8.57445C0.160423 6.21282 1.17745 3.98344 2.89829 2.3739Z" fill="url(#paint5_radial_5612_15476)"/>
<path d="M2.90412 2.37117C4.65887 0.770186 6.96877 -0.0734807 9.33613 0.021945C11.7035 0.117371 13.9388 1.14425 15.5606 2.88134C15.5606 2.88134 11.1888 7.14609 10.445 7.75371C10.445 7.75371 9.47886 8.76544 9.5273 8.88582C9.68975 9.23261 15.1929 15.3317 15.1901 15.3317L15.0647 15.4492L15.0105 15.5008C11.3712 18.7079 5.71698 18.513 2.42248 14.9419C0.832574 13.2088 -0.00948076 10.9127 0.0807959 8.55645C0.171073 6.20022 1.18632 3.97604 2.90412 2.37117Z" fill="url(#paint6_radial_5612_15476)"/>
<path d="M2.90659 2.36518C4.66192 0.765791 6.97162 -0.0763321 9.33831 0.0201598C11.705 0.116652 13.9393 1.14404 15.5602 2.88108C15.5602 2.88108 11.3309 7.03406 10.4816 7.71332C10.4816 7.71332 9.54972 8.71072 9.60672 8.85976C9.77771 9.27248 15.1811 15.3171 15.1783 15.3171C15.1754 15.3171 15.0614 15.4289 15.0529 15.4346L14.9987 15.4833C11.368 18.6704 5.71375 18.4698 2.42781 14.9187C0.836426 13.1899 -0.00711369 10.8963 0.0826705 8.54224C0.172455 6.18814 1.18821 3.96627 2.90659 2.36518Z" fill="url(#paint7_radial_5612_15476)"/>
<path d="M2.91267 2.36252C4.66807 0.765241 6.97675 -0.0753008 9.34206 0.0217145C11.7074 0.11873 13.9403 1.14555 15.5606 2.88129C15.5606 2.88129 11.4766 6.92535 10.5191 7.68774C10.5191 7.68774 9.62135 8.66794 9.6869 8.83418C9.87784 9.29848 15.1701 15.2886 15.1701 15.2915L15.0447 15.409L14.9906 15.4577C11.3683 18.6448 5.71413 18.4356 2.45099 14.8845C0.861448 13.1622 0.0171361 10.8756 0.103714 8.52738C0.190292 6.17917 1.20067 3.96168 2.91267 2.36252Z" fill="url(#paint8_radial_5612_15476)"/>
<path d="M2.91534 2.35932C4.67096 0.763269 6.97923 -0.0762318 9.34386 0.0213132C11.7085 0.118858 13.9406 1.14566 15.5604 2.88095C15.5604 2.88095 11.619 6.81324 10.5445 7.6616C10.5445 7.6616 9.68957 8.62748 9.75227 8.80804C9.97456 9.31534 15.1614 15.251 15.1585 15.2539L15.0331 15.3685C15.0331 15.3685 14.9847 15.4144 14.979 15.4201C11.3653 18.5958 5.71395 18.378 2.43941 14.8469C1.6553 13.9956 1.04561 12.9972 0.645173 11.9089C0.244731 10.8206 0.0613732 9.66358 0.105568 8.50398C0.149763 7.34439 0.420646 6.2049 0.902749 5.1506C1.38485 4.09629 2.06873 3.14781 2.91534 2.35932Z" fill="url(#paint9_radial_5612_15476)"/>
<path d="M2.92125 2.35389C4.6773 0.760305 6.98476 -0.0771155 9.34802 0.0214889C11.7113 0.120093 13.9418 1.14686 15.5606 2.88125C15.5606 2.88125 11.7645 6.70463 10.5932 7.63611C10.5932 7.63611 9.76388 8.58766 9.84368 8.78255C10.0774 9.35577 15.1502 15.2341 15.1502 15.237L15.0248 15.3517L14.9707 15.4004C11.3627 18.5588 5.71416 18.3353 2.45102 14.8071C0.871595 13.0928 0.0338589 10.8179 0.122041 8.48257C0.210224 6.14723 1.2171 3.94274 2.92125 2.35389Z" fill="url(#paint10_radial_5612_15476)"/>
<path d="M2.92381 2.35094C4.68055 0.758416 6.98807 -0.0780431 9.35111 0.0210881C11.7142 0.120219 13.9444 1.14704 15.5631 2.88117C15.5631 2.88117 11.9067 6.6071 10.63 7.6131C10.63 7.6131 9.83768 8.54459 9.92033 8.75954C10.1768 9.37002 15.1414 15.2054 15.1385 15.2054L15.0131 15.3229L14.959 15.3716C11.3624 18.5243 5.71387 18.2951 2.45927 14.7784C1.67763 13.9321 1.06956 12.9391 0.669829 11.8563C0.2701 10.7735 0.0865583 9.62202 0.129703 8.4678C0.172848 7.31357 0.441832 6.17923 0.92127 5.12964C1.40071 4.08005 2.08119 3.13582 2.92381 2.35094Z" fill="url(#paint11_radial_5612_15476)"/>
<path d="M2.92963 2.34781C4.68644 0.757385 6.99294 -0.0774967 9.35461 0.0221575C11.7163 0.121812 13.9451 1.14807 15.5633 2.8809C15.5633 2.8809 12.0522 6.48359 10.6671 7.58704C10.6671 7.58704 9.90906 8.50419 10.0003 8.73348C10.2852 9.40415 15.1301 15.1793 15.1301 15.1822L15.0047 15.2997C15.0047 15.2997 14.9563 15.3427 14.9534 15.3484C11.3625 18.5012 5.71684 18.2518 2.46795 14.7466C-0.780948 11.2413 -0.618503 5.58363 2.92963 2.34781Z" fill="url(#paint12_radial_5612_15476)"/>
<path d="M2.93225 2.34232C4.68963 0.753492 6.99593 -0.0798506 9.35692 0.0208689C11.7179 0.121588 13.9458 1.14836 15.563 2.88114C15.563 2.88114 12.1944 6.36919 10.7182 7.55575C10.7182 7.55575 9.99147 8.45571 10.0912 8.70219C10.3905 9.42445 15.1298 15.1452 15.1298 15.1481L15.0045 15.2627L14.9503 15.3114C11.3566 18.4441 5.69951 18.2004 2.47341 14.7038C-0.752679 11.2072 -0.607334 5.56955 2.93225 2.34232Z" fill="url(#paint13_radial_5612_15476)"/>
<path d="M2.93824 2.33919C4.69568 0.752465 7.00096 -0.0793021 9.36058 0.02194C11.7202 0.123182 13.9467 1.14939 15.5633 2.88088C15.5633 2.88088 12.3401 6.26288 10.7441 7.53543C10.7441 7.53543 10.0516 8.42105 10.1571 8.68187C10.4791 9.45285 15.1045 15.1191 15.1045 15.122L14.9791 15.2366L14.9249 15.2854C11.3569 18.4065 5.6998 18.1543 2.4794 14.6692C-0.740993 11.184 -0.595647 5.55495 2.93824 2.33919Z" fill="url(#paint14_radial_5612_15476)"/>
<path d="M2.94105 2.33648C4.69871 0.75099 7.00357 -0.0797399 9.36251 0.0220313C11.7215 0.123803 13.9471 1.14999 15.5633 2.88104C15.5633 2.88104 12.4825 6.15413 10.7811 7.50979C10.7811 7.50979 10.1228 8.36962 10.2368 8.65623C10.5788 9.47307 15.1045 15.0935 15.1045 15.0964L14.9819 15.211L14.9278 15.2597C11.354 18.358 5.69976 18.1115 2.48791 14.632C-0.723932 11.1526 -0.587136 5.54365 2.94105 2.33648Z" fill="url(#paint15_radial_5612_15476)"/>
<path d="M2.94676 2.33069C4.70563 0.748168 7.01 -0.0801118 9.36782 0.0227054C11.7256 0.125523 13.9501 1.15129 15.5661 2.88098C15.5661 2.88098 12.6279 6.03369 10.8296 7.48394C10.8296 7.48394 10.2055 8.34377 10.3252 8.63038C10.6786 9.50741 15.1045 15.0648 15.0874 15.0676L14.962 15.1823C14.9453 15.2 14.9272 15.2163 14.9078 15.231C11.354 18.3321 5.69977 18.0713 2.49647 14.6005C-0.706821 11.1296 -0.570026 5.52926 2.94676 2.33069Z" fill="url(#paint16_radial_5612_15476)"/>
<path d="M2.9499 2.32795C4.71087 0.747806 7.01663 -0.0768511 9.37426 0.0302654C11.7319 0.137382 13.9543 1.16777 15.5664 2.90117C15.5664 2.90117 12.7707 5.9335 10.8555 7.46687C10.8555 7.46687 10.2656 8.30377 10.3939 8.61331C10.7786 9.54479 15.0791 15.0506 15.0762 15.0534C15.0734 15.0563 14.9708 15.1537 14.9509 15.1681L14.8996 15.2168C11.3514 18.295 5.70006 18.0198 2.50246 14.5662C-0.695135 11.1125 -0.569739 5.51505 2.9499 2.32795Z" fill="url(#paint17_radial_5612_15476)"/>
<path d="M2.95516 2.32483C4.71552 0.745736 7.02019 -0.0783062 9.37666 0.028806C11.7331 0.135918 13.9545 1.16569 15.566 2.89805C15.566 2.89805 12.9156 5.83007 10.8922 7.44369C10.8922 7.44369 10.3364 8.26339 10.4704 8.59013C10.8779 9.5732 15.0701 15.0245 15.0644 15.0274L14.9419 15.142L14.8877 15.1908C11.3481 18.2575 5.69963 17.9766 2.51058 14.5315C-0.678468 11.0865 -0.555922 5.50047 2.95516 2.32483Z" fill="url(#paint18_radial_5612_15476)"/>
<path d="M2.95812 2.30766C4.71864 0.73012 7.02254 -0.0929306 9.3781 0.0141647C11.7337 0.12126 13.9543 1.15002 15.5661 2.88088C15.5661 2.88088 13.0582 5.70399 10.9322 7.40072C10.9322 7.40072 10.4078 8.20323 10.5503 8.54716C10.9778 9.58182 15.0588 14.9816 15.056 14.9844L14.9306 15.0991L14.8764 15.1449C11.3482 18.2203 5.69973 17.9308 2.51639 14.5001C-0.666957 11.0693 -0.54441 5.48617 2.95812 2.30766Z" fill="url(#paint19_radial_5612_15476)"/>
<path d="M2.96397 2.30796C4.72387 0.731468 7.02667 -0.0909677 9.38108 0.0161232C11.7355 0.123214 13.9551 1.15135 15.5663 2.88118C14.1494 4.49683 12.6127 6.00204 10.9694 7.38383C10.9694 7.38383 10.4792 8.172 10.6302 8.53027C11.0777 9.61652 15.0476 14.9589 15.0447 14.9647L14.9222 15.0764L14.868 15.1252C11.3455 18.1833 5.69988 17.8881 2.52509 14.466C-0.649709 11.0438 -0.535713 5.46067 2.96397 2.30796Z" fill="url(#paint20_radial_5612_15476)"/>
<path d="M2.96645 2.3078C4.72666 0.732002 7.02932 -0.0899783 9.3835 0.0171027C11.7377 0.124184 13.9572 1.15185 15.5687 2.88102C14.1717 4.49227 12.6467 5.98661 11.0089 7.34927C11.0089 7.34927 10.5558 8.12025 10.7239 8.49571C11.1941 9.64215 15.0558 14.9244 15.0501 14.9272L14.9275 15.0419L14.8734 15.0906C11.3452 18.143 5.69951 17.8421 2.53041 14.4314C-0.638686 11.0207 -0.52469 5.46051 2.96645 2.3078Z" fill="url(#paint21_radial_5612_15476)"/>
<path d="M2.9723 2.3078C4.73253 0.734422 7.03379 -0.0860368 9.38638 0.0210203C11.739 0.128077 13.9572 1.1542 15.5689 2.88102C14.1938 4.49342 12.6794 5.98006 11.0432 7.32348C11.0432 7.32348 10.6243 8.08013 10.7868 8.46992C11.2769 9.67082 15.0274 14.9187 15.0246 14.9187C15.0217 14.9187 14.9248 15.0132 14.8992 15.0333L14.8479 15.0792C11.3425 18.1058 5.69966 17.7848 2.53911 14.397C-0.621436 11.0093 -0.515989 5.46051 2.9723 2.3078Z" fill="url(#paint22_radial_5612_15476)"/>
<path d="M2.97508 2.30788C4.73515 0.735364 7.0358 -0.0845606 9.3877 0.0224893C11.7396 0.129539 13.9572 1.15512 15.5688 2.8811C14.216 4.49642 12.713 5.97823 11.0802 7.30636C11.0802 7.30636 10.6955 8.04581 10.8636 8.4528C11.3795 9.69382 15.0188 14.8786 15.0131 14.8815L14.8905 14.9932L14.8364 15.042C11.3396 18.0714 5.69959 17.7533 2.5476 14.3627C-0.604402 10.9721 -0.504655 5.43193 2.97508 2.30788Z" fill="url(#paint23_radial_5612_15476)"/>
<path d="M2.97833 2.30795C4.73825 0.736307 7.03827 -0.0830845 9.38949 0.0239583C11.7407 0.131001 13.9577 1.15604 15.5692 2.88117C14.2395 4.49933 12.7468 5.97465 11.1148 7.2835C11.1148 7.2835 10.7643 8.00576 10.941 8.42994C11.4768 9.72256 15.0049 14.85 15.0021 14.8557L14.8767 14.9675L14.8225 15.0162C11.34 18.0314 5.69999 17.7075 2.56509 14.3284C-0.569808 10.9492 -0.492861 5.41767 2.97833 2.30795Z" fill="url(#paint24_radial_5612_15476)"/>
<path d="M2.98373 2.30811C4.74334 0.738192 7.04213 -0.0801322 9.39197 0.0268964C11.7418 0.133925 13.9576 1.15788 15.5689 2.88133C14.2642 4.50004 12.7845 5.9679 11.1573 7.25786C11.1573 7.25786 10.8381 7.96579 11.0233 8.4043C11.5933 9.7485 15.0132 14.8244 14.9933 14.8301L14.8707 14.9419L14.8166 14.9877C11.3368 17.9943 5.6997 17.6618 2.56479 14.2941C-0.570107 10.9265 -0.484609 5.4035 2.98373 2.30811Z" fill="url(#paint25_radial_5612_15476)"/>
<path d="M2.98656 2.30804C4.74633 0.739675 7.04434 -0.0776669 9.39329 0.0293449C11.7422 0.136357 13.9573 1.15931 15.5689 2.88126C14.2904 4.50349 12.8215 5.96433 11.1943 7.232C11.1943 7.232 10.9093 7.92274 11.1003 8.37845C11.6702 9.77424 14.9875 14.7956 14.9818 14.7985C14.9761 14.8014 14.8878 14.8874 14.8593 14.9103L14.8051 14.959C11.3368 17.957 5.69967 17.6188 2.56477 14.2597C-0.570131 10.9006 -0.473234 5.3891 2.98656 2.30804Z" fill="url(#paint26_radial_5612_15476)"/>
<path d="M2.99246 2.29055C4.75423 0.725213 7.0529 -0.0886014 9.40119 0.0216155C11.7495 0.131832 13.9628 1.15742 15.5719 2.88096C15.5719 2.88096 14.2097 4.82991 11.2315 7.20591C11.2315 7.20591 10.9807 7.88231 11.1802 8.35235C11.7787 9.7854 14.9763 14.7695 14.9735 14.7724L14.8481 14.8842L14.7968 14.9329C11.3341 17.9194 5.69987 17.5726 2.56497 14.225C-0.569928 10.8774 -0.464481 5.37447 2.99246 2.29055Z" fill="url(#paint27_radial_5612_15476)"/>
<path d="M2.99503 2.28496C4.75768 0.721893 7.05601 -0.0899424 9.40342 0.0213277C11.7508 0.132598 13.963 1.15824 15.5717 2.8811C15.5717 2.8811 14.3548 4.70968 11.2683 7.18026C11.1533 7.55365 11.1533 7.9533 11.2683 8.3267C11.8896 9.82567 14.9732 14.7382 14.9732 14.7439L14.8507 14.8557L14.7965 14.9015C11.331 17.8823 5.6996 17.5297 2.58465 14.1936C-0.530302 10.8575 -0.453355 5.36315 2.99503 2.28496Z" fill="url(#paint28_radial_5612_15476)"/>
<path d="M3.00102 2.28216C4.76309 0.719814 7.06069 -0.0913601 9.40716 0.0204511C11.7536 0.132262 13.9647 1.15828 15.572 2.88117C15.572 2.88117 14.4976 4.60083 11.2971 7.14307C11.1964 7.52014 11.2073 7.91857 11.3285 8.28951C11.9697 9.86013 14.9564 14.721 14.9507 14.7268L14.8281 14.8385L14.7768 14.8844C11.3313 17.8451 5.69988 17.4983 2.59063 14.1593C-0.518618 10.8203 -0.44167 5.34889 3.00102 2.28216Z" fill="url(#paint29_radial_5612_15476)"/>
<path d="M3.00365 2.27899C4.76592 0.71787 7.06311 -0.092274 9.40891 0.0200651C11.7547 0.132404 13.9649 1.15841 15.5717 2.88087C15.5717 2.88087 14.6427 4.50021 11.3425 7.13129C11.2631 7.51292 11.2877 7.90902 11.4137 8.27773C12.0778 9.87988 14.9476 14.6863 14.9419 14.6921L14.8194 14.801L14.7652 14.8497C11.3282 17.8075 5.69966 17.4378 2.59897 14.1246C-0.550181 10.7655 -0.433335 5.33425 3.00365 2.27899Z" fill="url(#paint30_radial_5612_15476)"/>
<path d="M3.00962 2.27349C4.77261 0.715505 7.06884 -0.0921333 9.41306 0.0212512C11.7573 0.134636 13.9658 1.16016 15.572 2.88111C15.572 2.88111 14.7854 4.38008 11.3798 7.09427C11.321 7.47997 11.3603 7.87435 11.4938 8.24071C12.1778 9.89445 14.9365 14.6493 14.9308 14.6522L14.8082 14.764L14.7541 14.8098C11.3342 17.7476 5.70564 17.3893 2.60494 14.0704C-0.495764 10.7514 -0.421667 5.32016 3.00962 2.27349Z" fill="url(#paint31_radial_5612_15476)"/>
<path d="M3.01243 2.27059C4.77608 0.713648 7.07237 -0.0930439 9.41638 0.0208654C11.7604 0.134775 13.9686 1.16037 15.5748 2.88107C15.5748 2.88107 14.9307 4.26826 11.4196 7.06844C11.3812 7.45743 11.4339 7.85007 11.5735 8.21488C12.2775 9.94314 14.925 14.6321 14.9193 14.6464L14.7968 14.7582L14.7455 14.804C11.3256 17.7303 5.69989 17.3491 2.61344 14.0589C-0.521459 10.717 -0.410313 5.30579 3.01243 2.27059Z" fill="url(#paint32_radial_5612_15476)"/>
<path d="M3.01784 2.26766C4.78123 0.712114 7.07664 -0.0934685 9.41951 0.0209714C11.7624 0.135411 13.9694 1.16092 15.5745 2.881C15.5745 2.881 15.073 4.17075 11.4564 7.05405C11.4403 7.44564 11.5063 7.83626 11.6502 8.20049C12.3769 9.96887 14.9162 14.6148 14.9105 14.632L14.788 14.7409L14.7338 14.7868C11.3225 17.693 5.69961 17.3061 2.61885 14.0215C-0.507496 10.6911 -0.402049 5.29139 3.01784 2.26766Z" fill="url(#paint33_radial_5612_15476)"/>
<path d="M3.02076 2.26209C4.78501 0.70881 7.08008 -0.0947996 9.42206 0.0206923C11.764 0.136184 13.9699 1.16175 15.5746 2.88116C15.5746 2.88116 15.2184 4.05913 11.4935 7.02841C11.4997 7.42679 11.5799 7.82049 11.7301 8.18918C12.4796 9.99769 14.9049 14.5892 14.8992 14.5949L14.7766 14.7038L14.7253 14.7497C11.3225 17.6559 5.69968 17.2604 2.62748 13.9873C-0.493173 10.6684 -0.390577 5.27722 3.02076 2.26209Z" fill="url(#paint34_radial_5612_15476)"/>
<path d="M3.02676 2.25901C4.792 0.711835 7.08502 -0.0866459 9.42362 0.0314828C11.7622 0.149611 13.9642 1.17515 15.5664 2.89241C15.5664 2.89241 15.3526 3.95 11.5223 7.0024C11.5554 7.40209 11.6516 7.79393 11.8073 8.16317C12.5796 10.0261 14.8966 14.5632 14.8909 14.5689L14.7684 14.6778C14.7491 14.6915 14.731 14.7069 14.7142 14.7237C11.32 17.6184 5.69997 17.2114 2.63632 13.9527C-0.478629 10.6423 -0.381732 5.26554 3.02676 2.25901Z" fill="url(#paint35_radial_5612_15476)"/>
<path d="M3.02911 2.25639C4.79439 0.708897 7.08779 -0.089533 9.42661 0.0291415C11.7654 0.147816 13.9673 1.17434 15.5687 2.89266C15.5687 2.89266 15.5003 3.84134 11.5617 6.97686C11.6177 7.37698 11.725 7.76812 11.8809 8.1405C12.6789 10.0465 14.8847 14.5348 14.879 14.5405L14.7565 14.6494C14.7394 14.6494 14.7194 14.6838 14.7023 14.6953C11.3166 17.5814 5.69947 17.1716 2.64152 13.9186C-0.464883 10.6197 -0.370837 5.25146 3.02911 2.25639Z" fill="url(#paint36_radial_5612_15476)"/>
<path d="M3.03518 2.25062C4.8018 0.705204 7.09531 -0.0913414 9.43372 0.0283812C11.7721 0.148104 13.9733 1.17477 15.5748 2.89262C15.5748 2.89262 15.6489 3.74099 11.6048 6.95389C11.6877 7.35207 11.8099 7.74093 11.9696 8.11466C12.7819 10.0808 14.8794 14.5089 14.8708 14.5147C14.8623 14.5204 14.7882 14.592 14.7483 14.6236L14.697 14.6694C11.3199 17.5499 5.69984 17.1257 2.65044 13.8841C-0.453107 10.5938 -0.35906 5.23709 3.03518 2.25062Z" fill="url(#paint37_radial_5612_15476)"/>
<path d="M3.03807 2.24769C4.80509 0.702315 7.09918 -0.09368 9.43781 0.0271234C11.7764 0.147927 13.9774 1.17611 15.5776 2.89543C15.5776 2.89543 15.7942 3.62055 11.6448 6.92803C11.7513 7.32458 11.8846 7.71336 12.0438 8.09167C12.8788 10.0979 14.8652 14.4831 14.8595 14.4888L14.7369 14.5977L14.6828 14.6436C11.317 17.4982 5.69988 17.0798 2.65618 13.8525C-0.43882 10.568 -0.350473 5.2227 3.03807 2.24769Z" fill="url(#paint38_radial_5612_15476)"/>
<path d="M3.04353 2.24494C4.81091 0.699924 7.10521 -0.0955736 9.44386 0.0257647C11.7825 0.147103 13.9832 1.17582 15.5831 2.89554C15.5831 2.89554 15.9365 3.50889 11.6845 6.89375C11.6845 6.89375 11.8412 7.37525 12.1262 8.05739C12.9812 10.1267 14.8564 14.4488 14.8507 14.4545L14.7282 14.5634L14.6769 14.6064C11.314 17.4697 5.69964 17.0369 2.66449 13.8182C-0.424812 10.5423 -0.339315 5.20848 3.04353 2.24494Z" fill="url(#paint39_radial_5612_15476)"/>
<path d="M14.8366 14.4372C11.5079 17.4466 5.75396 17.0482 2.67036 13.7722C-0.413243 10.4963 -0.330596 5.17394 3.04654 2.22759C4.81495 0.683972 7.10952 -0.110087 9.44797 0.0123102C11.7864 0.134707 13.9866 1.16403 15.5861 2.88392C15.5861 2.88392 16.0906 3.38836 11.7274 6.86494C11.7188 6.8764 14.848 14.4286 14.8366 14.4372Z" fill="url(#paint40_radial_5612_15476)"/>
<path d="M11.5935 6.97314C10.2284 8.09952 8.54984 9.42653 6.59766 10.914C8.04789 12.4913 9.73452 13.8306 11.5964 14.8836C13.1952 15.7434 14.4463 15.9039 15.059 15.3594C15.6718 14.8148 15.5977 13.5594 14.8852 11.92C14.0416 10.114 12.9319 8.44622 11.5935 6.97314Z" fill="url(#paint41_linear_5612_15476)"/>
<path d="M11.7159 6.86133L11.032 7.43455C12.2843 8.81907 13.3254 10.3828 14.1213 12.0748C14.8195 13.6912 14.8024 14.5024 14.5772 14.7058C14.3521 14.9093 13.3803 14.9609 11.8271 14.1326C10.1065 13.1513 8.5504 11.9036 7.21592 10.4354L6.45215 11.0086L6.63169 11.1834C9.86634 14.5453 13.366 16.4599 14.905 15.7634C14.9506 15.7405 14.9962 15.7176 15.0389 15.6918H15.056C15.1155 15.6546 15.1718 15.6125 15.2242 15.5657C15.2796 15.5152 15.3302 15.4595 15.3752 15.3994C16.3812 14.0724 14.8537 10.4984 11.81 6.99603L11.7159 6.86133Z" fill="#84EEB1"/>
</g>
<path d="M25.4874 15.945C23.8328 15.945 22.5272 15.3405 21.5706 14.1315C20.614 12.9095 20.1357 11.1935 20.1357 8.98347C20.1357 6.82546 20.6076 5.12245 21.5512 3.87445C22.5078 2.62644 23.878 2.00244 25.6619 2.00244C26.2823 2.00244 26.8382 2.09344 27.3294 2.27544C27.8206 2.44444 28.2213 2.63944 28.5316 2.86045V4.75195C28.1826 4.53095 27.7689 4.32295 27.2906 4.12795C26.8123 3.93295 26.3082 3.83545 25.7782 3.83545C24.6407 3.83545 23.8134 4.25795 23.2963 5.10295C22.7792 5.94796 22.5207 7.24146 22.5207 8.98347C22.5207 10.6735 22.7792 11.954 23.2963 12.825C23.8134 13.683 24.6019 14.112 25.6619 14.112C26.2823 14.112 26.8188 14.021 27.2712 13.839C27.7237 13.644 28.1438 13.4035 28.5316 13.1175V15.009C28.2343 15.217 27.8335 15.425 27.3294 15.633C26.8253 15.841 26.2112 15.945 25.4874 15.945Z" fill="black"/>
<path d="M29.9913 5.94146H37.5921V15.75H35.2847V7.77447H32.2987V15.75H29.9913V5.94146Z" fill="black"/>
<path d="M38.7591 13.7415C38.7591 13.7415 38.8044 13.774 38.8949 13.839C38.9854 13.891 39.1146 13.917 39.2827 13.917C39.6575 13.917 39.9031 13.722 40.0195 13.332C40.1358 12.942 40.2134 12.227 40.2522 11.187L40.4461 5.94146H47.058V15.75H44.7506V7.77447H42.4044L42.2687 11.2845C42.217 12.9095 42.0166 14.0925 41.6676 14.8335C41.3186 15.5745 40.6529 15.945 39.6705 15.945C39.399 15.945 39.1793 15.9125 39.0112 15.8475C38.8432 15.7825 38.7591 15.75 38.7591 15.75V13.7415Z" fill="black"/>
<path d="M49.0025 5.94146H51.2517V12.006L54.8194 5.94146H56.8166V15.75H54.5674V9.68547L50.9996 15.75H49.0025V5.94146Z" fill="black"/>
<path d="M65.9091 7.77447H63.1945V15.75H60.8871V7.77447H58.1725V5.94146H65.9091V7.77447Z" fill="black"/>
<defs>
<radialGradient id="paint0_radial_5612_15476" cx="0" cy="0" r="1" gradientUnits="userSpaceOnUse" gradientTransform="translate(11.2481 1.01978) rotate(-2.30361) scale(41.0291 30.5341)">
<stop stop-color="#03BA50"/>
<stop offset="0.8" stop-color="#01B64E"/>
</radialGradient>
<radialGradient id="paint1_radial_5612_15476" cx="0" cy="0" r="1" gradientUnits="userSpaceOnUse" gradientTransform="translate(11.244 1.01625) rotate(-2.30361) scale(40.9435 30.4705)">
<stop stop-color="#04BC50"/>
<stop offset="0.8" stop-color="#01B34D"/>
</radialGradient>
<radialGradient id="paint2_radial_5612_15476" cx="0" cy="0" r="1" gradientUnits="userSpaceOnUse" gradientTransform="translate(11.2344 1.02418) rotate(-2.30361) scale(40.8579 30.4068)">
<stop stop-color="#06BD51"/>
<stop offset="0.72" stop-color="#02B24C"/>
<stop offset="0.8" stop-color="#01B04B"/>
</radialGradient>
<radialGradient id="paint3_radial_5612_15476" cx="0" cy="0" r="1" gradientUnits="userSpaceOnUse" gradientTransform="translate(11.2188 1.03727) rotate(-2.30361) scale(40.7724 30.3431)">
<stop stop-color="#08BF52"/>
<stop offset="0.56" stop-color="#04B44D"/>
<stop offset="0.8" stop-color="#01AD4A"/>
</radialGradient>
<radialGradient id="paint4_radial_5612_15476" cx="0" cy="0" r="1" gradientUnits="userSpaceOnUse" gradientTransform="translate(11.2036 1.0495) rotate(-2.30361) scale(40.6868 30.2794)">
<stop stop-color="#0AC053"/>
<stop offset="0.48" stop-color="#05B54E"/>
<stop offset="0.8" stop-color="#01AA49"/>
</radialGradient>
<radialGradient id="paint5_radial_5612_15476" cx="0" cy="0" r="1" gradientUnits="userSpaceOnUse" gradientTransform="translate(11.1855 1.08063) rotate(-1.72812) scale(40.584 30.2121)">
<stop stop-color="#0BC253"/>
<stop offset="0.42" stop-color="#07B74E"/>
<stop offset="0.8" stop-color="#01A848"/>
</radialGradient>
<radialGradient id="paint6_radial_5612_15476" cx="0" cy="0" r="1" gradientUnits="userSpaceOnUse" gradientTransform="translate(11.162 1.08859) rotate(-1.72811) scale(40.4985 30.1484)">
<stop stop-color="#0DC354"/>
<stop offset="0.37" stop-color="#08B84F"/>
<stop offset="0.8" stop-color="#01A546"/>
</radialGradient>
<radialGradient id="paint7_radial_5612_15476" cx="0" cy="0" r="1" gradientUnits="userSpaceOnUse" gradientTransform="translate(11.4626 1.09633) rotate(-1.72812) scale(40.4129 30.0725)">
<stop stop-color="#0FC555"/>
<stop offset="0.33" stop-color="#0ABA50"/>
<stop offset="0.8" stop-color="#01A245"/>
</radialGradient>
<radialGradient id="paint8_radial_5612_15476" cx="0" cy="0" r="1" gradientUnits="userSpaceOnUse" gradientTransform="translate(11.433 1.11107) rotate(-1.71102) scale(40.7303 30.0089)">
<stop stop-color="#11C656"/>
<stop offset="0.3" stop-color="#0CBB51"/>
<stop offset="0.8" stop-color="#019F44"/>
</radialGradient>
<radialGradient id="paint9_radial_5612_15476" cx="0" cy="0" r="1" gradientUnits="userSpaceOnUse" gradientTransform="translate(11.4228 1.12543) rotate(-1.71102) scale(40.644 29.9453)">
<stop stop-color="#12C856"/>
<stop offset="0.28" stop-color="#0EBD51"/>
<stop offset="0.77" stop-color="#029E44"/>
<stop offset="0.8" stop-color="#019C43"/>
</radialGradient>
<radialGradient id="paint10_radial_5612_15476" cx="0" cy="0" r="1" gradientUnits="userSpaceOnUse" gradientTransform="translate(11.413 1.1456) rotate(-1.71102) scale(40.5547 29.8795)">
<stop stop-color="#14C957"/>
<stop offset="0.26" stop-color="#0FBE52"/>
<stop offset="0.72" stop-color="#049F44"/>
<stop offset="0.8" stop-color="#019941"/>
</radialGradient>
<radialGradient id="paint11_radial_5612_15476" cx="0" cy="0" r="1" gradientUnits="userSpaceOnUse" gradientTransform="translate(11.3942 1.16988) rotate(-1.71102) scale(40.4683 29.8158)">
<stop stop-color="#16CB58"/>
<stop offset="0.24" stop-color="#11C053"/>
<stop offset="0.66" stop-color="#06A145"/>
<stop offset="0.8" stop-color="#019640"/>
</radialGradient>
<radialGradient id="paint12_radial_5612_15476" cx="0" cy="0" r="1" gradientUnits="userSpaceOnUse" gradientTransform="translate(11.373 1.19618) rotate(-1.71102) scale(40.3819 29.7522)">
<stop stop-color="#18CC59"/>
<stop offset="0.23" stop-color="#13C154"/>
<stop offset="0.62" stop-color="#07A246"/>
<stop offset="0.8" stop-color="#01933F"/>
</radialGradient>
<radialGradient id="paint13_radial_5612_15476" cx="0" cy="0" r="1" gradientUnits="userSpaceOnUse" gradientTransform="translate(11.3514 1.22815) rotate(-1.71102) scale(40.2926 29.6864)">
<stop stop-color="#19CD59"/>
<stop offset="0.21" stop-color="#15C254"/>
<stop offset="0.59" stop-color="#09A347"/>
<stop offset="0.8" stop-color="#01903E"/>
</radialGradient>
<radialGradient id="paint14_radial_5612_15476" cx="0" cy="0" r="1" gradientUnits="userSpaceOnUse" gradientTransform="translate(11.3246 1.26191) rotate(-1.71102) scale(40.2062 29.6228)">
<stop stop-color="#1BCF5A"/>
<stop offset="0.2" stop-color="#17C455"/>
<stop offset="0.56" stop-color="#0BA547"/>
<stop offset="0.8" stop-color="#018D3C"/>
</radialGradient>
<radialGradient id="paint15_radial_5612_15476" cx="0" cy="0" r="1" gradientUnits="userSpaceOnUse" gradientTransform="translate(11.2948 1.13754) rotate(-1.14086) scale(40.1099 29.5585)">
<stop stop-color="#1DD05B"/>
<stop offset="0.19" stop-color="#18C556"/>
<stop offset="0.54" stop-color="#0CA648"/>
<stop offset="0.8" stop-color="#018B3B"/>
</radialGradient>
<radialGradient id="paint16_radial_5612_15476" cx="0" cy="0" r="1" gradientUnits="userSpaceOnUse" gradientTransform="translate(11.2621 1.16332) rotate(-1.14087) scale(40.0206 29.4928)">
<stop stop-color="#1ED25B"/>
<stop offset="0.18" stop-color="#1AC756"/>
<stop offset="0.51" stop-color="#0EA848"/>
<stop offset="0.8" stop-color="#01883A"/>
</radialGradient>
<radialGradient id="paint17_radial_5612_15476" cx="0" cy="0" r="1" gradientUnits="userSpaceOnUse" gradientTransform="translate(11.2297 1.18862) rotate(-1.14087) scale(39.9343 29.4291)">
<stop stop-color="#20D35C"/>
<stop offset="0.18" stop-color="#1BC857"/>
<stop offset="0.49" stop-color="#0FA949"/>
<stop offset="0.8" stop-color="#018539"/>
</radialGradient>
<radialGradient id="paint18_radial_5612_15476" cx="0" cy="0" r="1" gradientUnits="userSpaceOnUse" gradientTransform="translate(11.1909 1.22368) rotate(-1.14086) scale(39.8479 29.3655)">
<stop stop-color="#22D55D"/>
<stop offset="0.17" stop-color="#1DCA58"/>
<stop offset="0.47" stop-color="#11AB4A"/>
<stop offset="0.8" stop-color="#018237"/>
</radialGradient>
<radialGradient id="paint19_radial_5612_15476" cx="0" cy="0" r="1" gradientUnits="userSpaceOnUse" gradientTransform="translate(11.147 1.25626) rotate(-1.14087) scale(39.7587 29.2997)">
<stop stop-color="#24D65E"/>
<stop offset="0.16" stop-color="#1FCB59"/>
<stop offset="0.45" stop-color="#13AC4B"/>
<stop offset="0.8" stop-color="#017F36"/>
</radialGradient>
<radialGradient id="paint20_radial_5612_15476" cx="0" cy="0" r="1" gradientUnits="userSpaceOnUse" gradientTransform="translate(11.1002 1.29634) rotate(-1.14087) scale(39.6723 29.2361)">
<stop stop-color="#25D85E"/>
<stop offset="0.15" stop-color="#20CD59"/>
<stop offset="0.43" stop-color="#14AE4B"/>
<stop offset="0.79" stop-color="#017D36"/>
<stop offset="0.8" stop-color="#007C35"/>
</radialGradient>
<radialGradient id="paint21_radial_5612_15476" cx="0" cy="0" r="1" gradientUnits="userSpaceOnUse" gradientTransform="translate(11.9624 1.34107) rotate(-1.14087) scale(39.5859 29.1646)">
<stop stop-color="#27D95F"/>
<stop offset="0.15" stop-color="#22CE5A"/>
<stop offset="0.42" stop-color="#16AF4C"/>
<stop offset="0.77" stop-color="#027E36"/>
<stop offset="0.8" stop-color="#007934"/>
</radialGradient>
<radialGradient id="paint22_radial_5612_15476" cx="0" cy="0" r="1" gradientUnits="userSpaceOnUse" gradientTransform="translate(11.6678 1.38738) rotate(-1.12968) scale(39.8876 29.0989)">
<stop stop-color="#29DB60"/>
<stop offset="0.14" stop-color="#24D05B"/>
<stop offset="0.4" stop-color="#18B14D"/>
<stop offset="0.74" stop-color="#048037"/>
<stop offset="0.8" stop-color="#007632"/>
</radialGradient>
<radialGradient id="paint23_radial_5612_15476" cx="0" cy="0" r="1" gradientUnits="userSpaceOnUse" gradientTransform="translate(11.6329 1.43893) rotate(-1.12968) scale(39.8004 29.0353)">
<stop stop-color="#2BDC61"/>
<stop offset="0.14" stop-color="#26D15C"/>
<stop offset="0.39" stop-color="#1AB24E"/>
<stop offset="0.71" stop-color="#068138"/>
<stop offset="0.8" stop-color="#007331"/>
</radialGradient>
<radialGradient id="paint24_radial_5612_15476" cx="0" cy="0" r="1" gradientUnits="userSpaceOnUse" gradientTransform="translate(11.5985 1.49553) rotate(-1.12968) scale(39.7103 28.9695)">
<stop stop-color="#2CDE61"/>
<stop offset="0.13" stop-color="#27D35C"/>
<stop offset="0.37" stop-color="#1BB44E"/>
<stop offset="0.69" stop-color="#088339"/>
<stop offset="0.8" stop-color="#007030"/>
</radialGradient>
<radialGradient id="paint25_radial_5612_15476" cx="0" cy="0" r="1" gradientUnits="userSpaceOnUse" gradientTransform="translate(11.5604 1.20873) rotate(-0.564896) scale(39.6173 28.9062)">
<stop stop-color="#2EDF62"/>
<stop offset="0.13" stop-color="#29D45D"/>
<stop offset="0.37" stop-color="#1DB54F"/>
<stop offset="0.67" stop-color="#098439"/>
<stop offset="0.8" stop-color="#006E2F"/>
</radialGradient>
<radialGradient id="paint26_radial_5612_15476" cx="0" cy="0" r="1" gradientUnits="userSpaceOnUse" gradientTransform="translate(11.5168 1.25352) rotate(-0.564896) scale(39.5301 28.8426)">
<stop stop-color="#30E163"/>
<stop offset="0.13" stop-color="#2BD65E"/>
<stop offset="0.35" stop-color="#1FB750"/>
<stop offset="0.65" stop-color="#0B8639"/>
<stop offset="0.8" stop-color="#006B2D"/>
</radialGradient>
<radialGradient id="paint27_radial_5612_15476" cx="0" cy="0" r="1" gradientUnits="userSpaceOnUse" gradientTransform="translate(11.4734 1.30309) rotate(-0.564897) scale(39.4399 28.7769)">
<stop stop-color="#31E263"/>
<stop offset="0.12" stop-color="#2CD75E"/>
<stop offset="0.34" stop-color="#20B850"/>
<stop offset="0.63" stop-color="#0D873A"/>
<stop offset="0.8" stop-color="#00682C"/>
</radialGradient>
<radialGradient id="paint28_radial_5612_15476" cx="0" cy="0" r="1" gradientUnits="userSpaceOnUse" gradientTransform="translate(11.4238 1.35528) rotate(-0.564897) scale(39.3527 28.7132)">
<stop stop-color="#33E364"/>
<stop offset="0.12" stop-color="#2ED85F"/>
<stop offset="0.34" stop-color="#22B951"/>
<stop offset="0.62" stop-color="#0E883B"/>
<stop offset="0.8" stop-color="#00652B"/>
</radialGradient>
<radialGradient id="paint29_radial_5612_15476" cx="0" cy="0" r="1" gradientUnits="userSpaceOnUse" gradientTransform="translate(11.3717 1.41169) rotate(-0.564897) scale(39.2626 28.6475)">
<stop stop-color="#35E565"/>
<stop offset="0.12" stop-color="#30DA60"/>
<stop offset="0.33" stop-color="#24BB52"/>
<stop offset="0.6" stop-color="#108A3C"/>
<stop offset="0.8" stop-color="#00622A"/>
</radialGradient>
<radialGradient id="paint30_radial_5612_15476" cx="0" cy="0" r="1" gradientUnits="userSpaceOnUse" gradientTransform="translate(11.3192 1.46989) rotate(-0.564896) scale(39.1754 28.5838)">
<stop stop-color="#37E666"/>
<stop offset="0.11" stop-color="#32DB61"/>
<stop offset="0.32" stop-color="#26BC53"/>
<stop offset="0.59" stop-color="#128B3C"/>
<stop offset="0.8" stop-color="#005F28"/>
</radialGradient>
<radialGradient id="paint31_radial_5612_15476" cx="0" cy="0" r="1" gradientUnits="userSpaceOnUse" gradientTransform="translate(11.2613 1.53369) rotate(-0.564896) scale(39.0853 28.5181)">
<stop stop-color="#38E866"/>
<stop offset="0.11" stop-color="#33DD61"/>
<stop offset="0.31" stop-color="#27BE53"/>
<stop offset="0.57" stop-color="#148D3D"/>
<stop offset="0.8" stop-color="#005C27"/>
</radialGradient>
<radialGradient id="paint32_radial_5612_15476" cx="0" cy="0" r="1" gradientUnits="userSpaceOnUse" gradientTransform="translate(11.2002 1.6015) rotate(-0.564897) scale(38.998 28.4545)">
<stop stop-color="#3AE967"/>
<stop offset="0.11" stop-color="#35DE62"/>
<stop offset="0.3" stop-color="#29BF54"/>
<stop offset="0.56" stop-color="#158E3E"/>
<stop offset="0.8" stop-color="#005926"/>
</radialGradient>
<radialGradient id="paint33_radial_5612_15476" cx="0" cy="0" r="1" gradientUnits="userSpaceOnUse" gradientTransform="translate(11.1389 1.67145) rotate(-0.564897) scale(38.9108 28.3908)">
<stop stop-color="#3CEB68"/>
<stop offset="0.11" stop-color="#37E063"/>
<stop offset="0.29" stop-color="#2BC155"/>
<stop offset="0.54" stop-color="#17903F"/>
<stop offset="0.8" stop-color="#005625"/>
</radialGradient>
<radialGradient id="paint34_radial_5612_15476" cx="0" cy="0" r="1" gradientUnits="userSpaceOnUse" gradientTransform="translate(11.0691 1.7467) rotate(-0.564896) scale(38.8207 28.3251)">
<stop stop-color="#3EEC69"/>
<stop offset="0.1" stop-color="#39E164"/>
<stop offset="0.29" stop-color="#2DC256"/>
<stop offset="0.53" stop-color="#19913F"/>
<stop offset="0.8" stop-color="#005323"/>
</radialGradient>
<radialGradient id="paint35_radial_5612_15476" cx="0" cy="0" r="1" gradientUnits="userSpaceOnUse" gradientTransform="translate(10.9997 1.30053) scale(38.7316 28.259)">
<stop stop-color="#3FEE69"/>
<stop offset="0.1" stop-color="#3AE364"/>
<stop offset="0.28" stop-color="#2EC456"/>
<stop offset="0.52" stop-color="#1A9340"/>
<stop offset="0.8" stop-color="#005122"/>
</radialGradient>
<radialGradient id="paint36_radial_5612_15476" cx="0" cy="0" r="1" gradientUnits="userSpaceOnUse" gradientTransform="translate(11.9136 1.36348) scale(39.0204 28.1933)">
<stop stop-color="#41EF6A"/>
<stop offset="0.1" stop-color="#3CE465"/>
<stop offset="0.28" stop-color="#30C557"/>
<stop offset="0.51" stop-color="#1C9441"/>
<stop offset="0.79" stop-color="#015022"/>
<stop offset="0.8" stop-color="#004E21"/>
</radialGradient>
<radialGradient id="paint37_radial_5612_15476" cx="0" cy="0" r="1" gradientUnits="userSpaceOnUse" gradientTransform="translate(11.8576 1.43114) scale(38.9352 28.1318)">
<stop stop-color="#43F16B"/>
<stop offset="0.1" stop-color="#3EE666"/>
<stop offset="0.27" stop-color="#32C758"/>
<stop offset="0.5" stop-color="#1E9642"/>
<stop offset="0.77" stop-color="#035223"/>
<stop offset="0.8" stop-color="#004B20"/>
</radialGradient>
<radialGradient id="paint38_radial_5612_15476" cx="0" cy="0" r="1" gradientUnits="userSpaceOnUse" gradientTransform="translate(11.8041 1.50302) scale(38.8471 28.0682)">
<stop stop-color="#45F26C"/>
<stop offset="0.1" stop-color="#40E767"/>
<stop offset="0.27" stop-color="#34C859"/>
<stop offset="0.49" stop-color="#209742"/>
<stop offset="0.76" stop-color="#055323"/>
<stop offset="0.8" stop-color="#00481E"/>
</radialGradient>
<radialGradient id="paint39_radial_5612_15476" cx="0" cy="0" r="1" gradientUnits="userSpaceOnUse" gradientTransform="translate(11.7474 1.58006) scale(38.7562 28.0024)">
<stop stop-color="#46F46C"/>
<stop offset="0.09" stop-color="#41E967"/>
<stop offset="0.26" stop-color="#35CA59"/>
<stop offset="0.48" stop-color="#229943"/>
<stop offset="0.74" stop-color="#065524"/>
<stop offset="0.8" stop-color="#00451D"/>
</radialGradient>
<radialGradient id="paint40_radial_5612_15476" cx="0" cy="0" r="1" gradientUnits="userSpaceOnUse" gradientTransform="translate(11.6939 1.66107) scale(38.6651 27.9367)">
<stop stop-color="#48F56D"/>
<stop offset="0.09" stop-color="#43EA68"/>
<stop offset="0.25" stop-color="#37CB5A"/>
<stop offset="0.47" stop-color="#239A44"/>
<stop offset="0.73" stop-color="#085625"/>
<stop offset="0.8" stop-color="#00421C"/>
</radialGradient>
<linearGradient id="paint41_linear_5612_15476" x1="12.3231" y1="21.7479" x2="8.95146" y2="-2.29347" gradientUnits="userSpaceOnUse">
<stop offset="0.1" stop-color="#FF8475"/>
<stop offset="0.37" stop-color="#E84E43"/>
<stop offset="0.6" stop-color="#D6261F"/>
<stop offset="0.79" stop-color="#CC0E08"/>
<stop offset="0.9" stop-color="#C80500"/>
</linearGradient>
<clipPath id="clip0_5612_15476">
<rect width="17.8983" height="18" fill="white"/>
</clipPath>
</defs>
</svg>
