<svg width="268" height="24" viewBox="0 0 268 24" fill="none" xmlns="http://www.w3.org/2000/svg">
<path d="M0 12C0 7.03053 4.02855 3 8.99802 3H15.7143V21H8.99802C4.02855 21 0 16.9695 0 12Z" fill="#121214"/>
<path d="M11.018 10.4025L10.9527 10.3136C14.2844 7.6238 13.9142 7.22367 13.9142 7.22367C13.5876 6.868 13.2392 6.55678 12.869 6.29003C12.3464 5.91213 11.7802 5.60091 11.1705 5.40085C8.64445 4.46721 5.63938 5.20078 3.83198 7.22367C1.41485 9.86899 1.3713 14.0704 3.8102 16.7602C6.37976 19.5833 10.7567 19.7611 13.5223 17.1603L13.5658 17.1158L13.6094 17.0714L13.6311 17.0491C13.6747 17.0047 13.7182 16.9602 13.74 16.9158C14.5239 15.8932 13.348 13.1145 11.018 10.4025ZM13.1521 16.4045C12.9779 16.5823 12.2375 16.6045 11.0398 15.9599C9.92923 15.3597 8.68801 14.3371 7.51211 13.0923C7.31612 13.2479 10.5825 10.6248 10.4301 10.7582C11.4535 11.9586 12.3246 13.2701 12.7819 14.3594C13.3263 15.6264 13.3045 16.2489 13.1521 16.4045Z" fill="white" fill-opacity="0.98"/>
<path d="M15.7144 3H67.7137C68.8183 3 69.7137 3.89543 69.7137 5V19C69.7137 20.1046 68.8183 21 67.7137 21H15.7144V3Z" fill="#121214"/>
<path d="M25.9691 17H18.9641V15.575C19.8841 14.835 20.6791 14.18 21.3491 13.61C22.0291 13.04 22.5891 12.515 23.0291 12.035C23.4791 11.555 23.8091 11.1 24.0191 10.67C24.2391 10.24 24.3491 9.79 24.3491 9.32C24.3491 8.73 24.1691 8.255 23.8091 7.895C23.4491 7.525 22.9241 7.34 22.2341 7.34C21.6441 7.34 21.0991 7.48 20.5991 7.76C20.0991 8.03 19.6491 8.385 19.2491 8.825V7.31C19.6291 6.93 20.0641 6.635 20.5541 6.425C21.0441 6.205 21.6191 6.095 22.2791 6.095C22.8391 6.095 23.3391 6.17 23.7791 6.32C24.2191 6.47 24.5891 6.68 24.8891 6.95C25.1891 7.22 25.4141 7.545 25.5641 7.925C25.7241 8.305 25.8041 8.725 25.8041 9.185C25.8041 9.765 25.6841 10.31 25.4441 10.82C25.2141 11.33 24.8741 11.84 24.4241 12.35C23.9741 12.85 23.4191 13.375 22.7591 13.925C22.1091 14.465 21.3641 15.06 20.5241 15.71H25.9691V17ZM34.1073 13.445C34.1073 14.005 34.0173 14.515 33.8373 14.975C33.6573 15.425 33.3973 15.815 33.0573 16.145C32.7273 16.465 32.3223 16.715 31.8423 16.895C31.3623 17.065 30.8273 17.15 30.2373 17.15C29.5773 17.15 29.0023 17.085 28.5123 16.955C28.0323 16.825 27.6173 16.635 27.2673 16.385V14.915C27.4473 15.055 27.6323 15.19 27.8223 15.32C28.0223 15.44 28.2423 15.545 28.4823 15.635C28.7223 15.725 28.9873 15.795 29.2773 15.845C29.5673 15.895 29.8873 15.92 30.2373 15.92C31.0073 15.92 31.6073 15.695 32.0373 15.245C32.4673 14.795 32.6823 14.205 32.6823 13.475C32.6823 12.695 32.4723 12.125 32.0523 11.765C31.6323 11.405 31.1023 11.225 30.4623 11.225C29.9823 11.225 29.5973 11.295 29.3073 11.435C29.0173 11.575 28.8023 11.73 28.6623 11.9H27.5823V6.245H33.5073V7.535H28.7973V10.625C29.0073 10.465 29.2673 10.33 29.5773 10.22C29.8873 10.1 30.2573 10.04 30.6873 10.04C31.1673 10.04 31.6123 10.115 32.0223 10.265C32.4423 10.405 32.8073 10.62 33.1173 10.91C33.4273 11.19 33.6673 11.545 33.8373 11.975C34.0173 12.395 34.1073 12.885 34.1073 13.445ZM39.8961 17.15C39.2961 17.15 38.7311 17.035 38.2011 16.805C37.6711 16.575 37.2061 16.23 36.8061 15.77C36.4161 15.31 36.1061 14.735 35.8761 14.045C35.6461 13.345 35.5311 12.535 35.5311 11.615C35.5311 10.695 35.6461 9.89 35.8761 9.2C36.1061 8.51 36.4161 7.94 36.8061 7.49C37.2061 7.03 37.6711 6.685 38.2011 6.455C38.7311 6.225 39.2961 6.11 39.8961 6.11C40.4961 6.11 41.0611 6.225 41.5911 6.455C42.1211 6.675 42.5811 7.015 42.9711 7.475C43.3711 7.925 43.6811 8.495 43.9011 9.185C44.1311 9.865 44.2461 10.665 44.2461 11.585C44.2461 12.505 44.1311 13.31 43.9011 14C43.6811 14.69 43.3711 15.27 42.9711 15.74C42.5811 16.21 42.1211 16.565 41.5911 16.805C41.0611 17.035 40.4961 17.15 39.8961 17.15ZM39.8811 15.965C40.2911 15.965 40.6761 15.89 41.0361 15.74C41.3961 15.59 41.7061 15.345 41.9661 15.005C42.2361 14.655 42.4461 14.205 42.5961 13.655C42.7561 13.105 42.8361 12.43 42.8361 11.63C42.8361 10.83 42.7561 10.155 42.5961 9.605C42.4461 9.055 42.2361 8.61 41.9661 8.27C41.7061 7.92 41.3961 7.67 41.0361 7.52C40.6861 7.37 40.3061 7.295 39.8961 7.295C39.4861 7.295 39.1011 7.37 38.7411 7.52C38.3811 7.67 38.0661 7.92 37.7961 8.27C37.5261 8.61 37.3111 9.055 37.1511 9.605C37.0011 10.155 36.9261 10.83 36.9261 11.63C36.9261 12.43 37.0011 13.105 37.1511 13.655C37.3111 14.205 37.5211 14.655 37.7811 15.005C38.0511 15.345 38.3661 15.59 38.7261 15.74C39.0861 15.89 39.4711 15.965 39.8811 15.965ZM50.1354 17.15C49.5354 17.15 48.9704 17.035 48.4404 16.805C47.9104 16.575 47.4454 16.23 47.0454 15.77C46.6554 15.31 46.3454 14.735 46.1154 14.045C45.8854 13.345 45.7704 12.535 45.7704 11.615C45.7704 10.695 45.8854 9.89 46.1154 9.2C46.3454 8.51 46.6554 7.94 47.0454 7.49C47.4454 7.03 47.9104 6.685 48.4404 6.455C48.9704 6.225 49.5354 6.11 50.1354 6.11C50.7354 6.11 51.3004 6.225 51.8304 6.455C52.3604 6.675 52.8204 7.015 53.2104 7.475C53.6104 7.925 53.9204 8.495 54.1404 9.185C54.3704 9.865 54.4854 10.665 54.4854 11.585C54.4854 12.505 54.3704 13.31 54.1404 14C53.9204 14.69 53.6104 15.27 53.2104 15.74C52.8204 16.21 52.3604 16.565 51.8304 16.805C51.3004 17.035 50.7354 17.15 50.1354 17.15ZM50.1204 15.965C50.5304 15.965 50.9154 15.89 51.2754 15.74C51.6354 15.59 51.9454 15.345 52.2054 15.005C52.4754 14.655 52.6854 14.205 52.8354 13.655C52.9954 13.105 53.0754 12.43 53.0754 11.63C53.0754 10.83 52.9954 10.155 52.8354 9.605C52.6854 9.055 52.4754 8.61 52.2054 8.27C51.9454 7.92 51.6354 7.67 51.2754 7.52C50.9254 7.37 50.5454 7.295 50.1354 7.295C49.7254 7.295 49.3404 7.37 48.9804 7.52C48.6204 7.67 48.3054 7.92 48.0354 8.27C47.7654 8.61 47.5504 9.055 47.3904 9.605C47.2404 10.155 47.1654 10.83 47.1654 11.63C47.1654 12.43 47.2404 13.105 47.3904 13.655C47.5504 14.205 47.7604 14.655 48.0204 15.005C48.2904 15.345 48.6054 15.59 48.9654 15.74C49.3254 15.89 49.7104 15.965 50.1204 15.965Z" fill="white" fill-opacity="0.98"/>
<path d="M59.0812 11.075V6.245H62.1562C63.2762 6.245 64.1462 6.49 64.7662 6.98C65.3962 7.47 65.7112 8.21 65.7112 9.2C65.7112 9.71 65.6212 10.15 65.4412 10.52C65.2712 10.89 65.0212 11.195 64.6912 11.435C64.3712 11.665 63.9862 11.84 63.5362 11.96C63.0862 12.07 62.5862 12.125 62.0362 12.125H60.5062V13.4H64.0162V14.45H60.5062V17H59.0812V14.45H57.6562V13.4H59.0812V12.125H57.6562V11.075H59.0812ZM60.5062 7.46V11.075H62.0362C62.7662 11.075 63.3262 10.925 63.7162 10.625C64.1062 10.315 64.3012 9.84 64.3012 9.2C64.3012 8.61 64.1312 8.175 63.7912 7.895C63.4512 7.605 62.9062 7.46 62.1562 7.46H60.5062Z" fill="white" fill-opacity="0.98"/>
<path d="M74.3379 14.136L76.8019 11.672L74.3379 9.208L75.0899 8.44L77.5539 10.92L80.0179 8.44L80.7859 9.208L78.3219 11.672L80.7859 14.136L80.0179 14.904L77.5539 12.424L75.0899 14.904L74.3379 14.136Z" fill="#52525B"/>
<path d="M90.1619 14.6H84.4339V14.152L89.6659 5.56H91.5219V13.464H93.1059V14.6H91.5219V17H90.1619V14.6ZM90.1619 13.464V6.616L86.1939 13.464H90.1619Z" fill="#52525B"/>
<path d="M103.338 9.752H99.3859V17H98.0579V8.632H104.666V17H103.338V9.752ZM108.955 13.768C108.859 14.92 108.656 15.7627 108.347 16.296C108.037 16.8187 107.552 17.08 106.891 17.08C106.752 17.08 106.608 17.0693 106.459 17.048L106.331 17V15.736L106.443 15.768C106.549 15.7893 106.661 15.8 106.779 15.8C106.949 15.8 107.088 15.752 107.195 15.656C107.312 15.5493 107.403 15.384 107.467 15.16C107.541 14.936 107.595 14.728 107.627 14.536C107.659 14.3333 107.696 14.0507 107.739 13.688C107.781 13.304 107.845 12.216 107.931 10.424L107.979 8.632H113.499V17H112.171V9.752H109.163C109.067 12.056 108.997 13.3947 108.955 13.768ZM118.375 17.144C117.554 17.144 116.882 16.9413 116.359 16.536C115.847 16.12 115.591 15.5013 115.591 14.68C115.591 14.2213 115.703 13.8213 115.927 13.48C116.162 13.128 116.482 12.856 116.887 12.664C117.292 12.4613 117.735 12.3173 118.215 12.232C118.695 12.136 119.218 12.088 119.783 12.088H120.983V11.48C120.983 10.808 120.844 10.328 120.567 10.04C120.29 9.74133 119.831 9.592 119.191 9.592C118.039 9.592 117.399 10.0933 117.271 11.096H115.943C116.028 10.2 116.375 9.544 116.983 9.128C117.602 8.70133 118.359 8.488 119.255 8.488C121.292 8.488 122.311 9.48533 122.311 11.48V17H120.983V15.944C120.343 16.744 119.474 17.144 118.375 17.144ZM118.503 16.088C119.228 16.088 119.82 15.912 120.279 15.56C120.748 15.1973 120.983 14.7013 120.983 14.072V13.032H119.831C117.89 13.032 116.919 13.5813 116.919 14.68C116.919 15.6187 117.447 16.088 118.503 16.088ZM130.461 9.752H127.757V17H126.429V9.752H123.725V8.632H130.461V9.752ZM135.5 17.144C134.305 17.144 133.329 16.7547 132.572 15.976C131.825 15.1973 131.452 14.1733 131.452 12.904V12.776C131.452 11.5173 131.814 10.488 132.54 9.688C133.276 8.888 134.22 8.488 135.372 8.488C136.438 8.488 137.329 8.83467 138.044 9.528C138.769 10.2107 139.132 11.2507 139.132 12.648V13.08H132.828C132.892 15.0533 133.788 16.04 135.516 16.04C136.828 16.04 137.569 15.5547 137.74 14.584H139.068C138.918 15.416 138.529 16.0507 137.9 16.488C137.27 16.9253 136.47 17.144 135.5 17.144ZM137.772 12.008C137.654 10.3973 136.854 9.592 135.372 9.592C134.7 9.592 134.145 9.80533 133.708 10.232C133.27 10.6587 132.993 11.2507 132.876 12.008H137.772ZM144.597 12.696L141.365 17H139.877L143.285 12.552L140.181 8.632H141.605L144.597 12.568V8.632H145.893V12.568L148.885 8.632H150.325L147.221 12.552L150.629 17H149.125L145.893 12.696V17H144.597V12.696ZM154.375 17.144C153.554 17.144 152.882 16.9413 152.359 16.536C151.847 16.12 151.591 15.5013 151.591 14.68C151.591 14.2213 151.703 13.8213 151.927 13.48C152.162 13.128 152.482 12.856 152.887 12.664C153.292 12.4613 153.735 12.3173 154.215 12.232C154.695 12.136 155.218 12.088 155.783 12.088H156.983V11.48C156.983 10.808 156.844 10.328 156.567 10.04C156.29 9.74133 155.831 9.592 155.191 9.592C154.039 9.592 153.399 10.0933 153.271 11.096H151.943C152.028 10.2 152.375 9.544 152.983 9.128C153.602 8.70133 154.359 8.488 155.255 8.488C157.292 8.488 158.311 9.48533 158.311 11.48V17H156.983V15.944C156.343 16.744 155.474 17.144 154.375 17.144ZM154.503 16.088C155.228 16.088 155.82 15.912 156.279 15.56C156.748 15.1973 156.983 14.7013 156.983 14.072V13.032H155.831C153.89 13.032 152.919 13.5813 152.919 14.68C152.919 15.6187 153.447 16.088 154.503 16.088ZM168.658 17.144C167.399 17.144 166.402 16.7387 165.666 15.928C164.93 15.1173 164.562 13.8853 164.562 12.232V11.72C164.562 10.9307 164.594 10.232 164.658 9.624C164.722 9.00533 164.855 8.38667 165.058 7.768C165.261 7.13867 165.527 6.616 165.858 6.2C166.189 5.784 166.637 5.43733 167.202 5.16C167.778 4.88267 168.455 4.72267 169.234 4.68L169.554 4.664C170.727 4.6 171.522 4.48267 171.938 4.312L172.114 5.432C171.57 5.66667 170.722 5.81067 169.57 5.864L169.33 5.88C168.039 5.944 167.117 6.36533 166.562 7.144C166.018 7.912 165.698 9.10667 165.602 10.728H165.666C165.954 10.1413 166.381 9.67733 166.946 9.336C167.522 8.984 168.189 8.808 168.946 8.808C170.109 8.808 171.037 9.18667 171.73 9.944C172.434 10.6907 172.786 11.6613 172.786 12.856V12.92C172.786 14.2107 172.397 15.24 171.618 16.008C170.85 16.7653 169.863 17.144 168.658 17.144ZM166.658 15.224C167.149 15.768 167.821 16.04 168.674 16.04C169.527 16.04 170.194 15.7733 170.674 15.24C171.165 14.696 171.41 13.928 171.41 12.936V12.904C171.41 11.976 171.186 11.2453 170.738 10.712C170.301 10.1787 169.661 9.912 168.818 9.912C167.933 9.912 167.229 10.1893 166.706 10.744C166.194 11.2987 165.938 12.056 165.938 13.016V13.048C165.938 13.9547 166.178 14.68 166.658 15.224ZM178.375 17.144C177.18 17.144 176.204 16.7547 175.447 15.976C174.7 15.1973 174.327 14.1733 174.327 12.904V12.776C174.327 11.5173 174.689 10.488 175.415 9.688C176.151 8.888 177.095 8.488 178.247 8.488C179.313 8.488 180.204 8.83467 180.919 9.528C181.644 10.2107 182.007 11.2507 182.007 12.648V13.08H175.703C175.767 15.0533 176.663 16.04 178.391 16.04C179.703 16.04 180.444 15.5547 180.615 14.584H181.943C181.793 15.416 181.404 16.0507 180.775 16.488C180.145 16.9253 179.345 17.144 178.375 17.144ZM180.647 12.008C180.529 10.3973 179.729 9.592 178.247 9.592C177.575 9.592 177.02 9.80533 176.583 10.232C176.145 10.6587 175.868 11.2507 175.751 12.008H180.647ZM189.34 10.808C189.34 11.224 189.218 11.608 188.972 11.96C188.738 12.3013 188.402 12.5147 187.964 12.6C188.508 12.696 188.94 12.904 189.26 13.224C189.58 13.544 189.74 13.9653 189.74 14.488V14.536C189.74 15.3147 189.452 15.944 188.876 16.424C188.311 16.904 187.538 17.144 186.556 17.144C185.543 17.144 184.748 16.9093 184.172 16.44C183.607 15.96 183.303 15.288 183.26 14.424H184.556C184.62 14.9573 184.802 15.3627 185.1 15.64C185.41 15.9067 185.895 16.04 186.556 16.04C187.751 16.04 188.348 15.5653 188.348 14.616V14.568C188.348 14.0987 188.204 13.7573 187.916 13.544C187.639 13.3307 187.207 13.224 186.62 13.224H185.356V12.168H186.396C186.951 12.168 187.346 12.0667 187.58 11.864C187.826 11.6613 187.948 11.3307 187.948 10.872V10.824C187.948 10.0027 187.468 9.592 186.508 9.592C185.58 9.592 185.026 10.0293 184.844 10.904H183.564C183.66 10.0613 183.98 9.448 184.524 9.064C185.079 8.68 185.767 8.488 186.588 8.488C187.378 8.488 188.034 8.69067 188.556 9.096C189.079 9.49067 189.34 10.0453 189.34 10.76V10.808ZM201.369 9.752H197.417V17H196.089V8.632H202.697V17H201.369V9.752ZM208.906 17.144C207.711 17.144 206.735 16.7547 205.978 15.976C205.231 15.1973 204.858 14.1733 204.858 12.904V12.776C204.858 11.5173 205.221 10.488 205.946 9.688C206.682 8.888 207.626 8.488 208.778 8.488C209.845 8.488 210.735 8.83467 211.45 9.528C212.175 10.2107 212.538 11.2507 212.538 12.648V13.08H206.234C206.298 15.0533 207.194 16.04 208.922 16.04C210.234 16.04 210.975 15.5547 211.146 14.584H212.474C212.325 15.416 211.935 16.0507 211.306 16.488C210.677 16.9253 209.877 17.144 208.906 17.144ZM211.178 12.008C211.061 10.3973 210.261 9.592 208.778 9.592C208.106 9.592 207.551 9.80533 207.114 10.232C206.677 10.6587 206.399 11.2507 206.282 12.008H211.178ZM214.576 8.632H215.904V10.04C216.149 9.61333 216.533 9.25067 217.056 8.952C217.578 8.64267 218.138 8.488 218.736 8.488C219.856 8.488 220.768 8.86667 221.472 9.624C222.186 10.3813 222.544 11.4053 222.544 12.696V12.824C222.544 14.1147 222.192 15.16 221.488 15.96C220.794 16.7493 219.877 17.144 218.736 17.144C217.456 17.144 216.512 16.6373 215.904 15.624V19.912H214.576V8.632ZM218.608 16.04C219.44 16.04 220.074 15.7733 220.512 15.24C220.949 14.696 221.168 13.912 221.168 12.888V12.76C221.168 11.7467 220.922 10.968 220.432 10.424C219.952 9.86933 219.338 9.592 218.592 9.592C217.781 9.592 217.12 9.864 216.608 10.408C216.106 10.9413 215.856 11.7253 215.856 12.76V12.888C215.856 13.9227 216.101 14.7067 216.592 15.24C217.093 15.7733 217.765 16.04 218.608 16.04ZM228.031 17.144C226.836 17.144 225.86 16.7547 225.103 15.976C224.356 15.1973 223.983 14.1733 223.983 12.904V12.776C223.983 11.5173 224.346 10.488 225.071 9.688C225.807 8.888 226.751 8.488 227.903 8.488C228.97 8.488 229.86 8.83467 230.575 9.528C231.3 10.2107 231.663 11.2507 231.663 12.648V13.08H225.359C225.423 15.0533 226.319 16.04 228.047 16.04C229.359 16.04 230.1 15.5547 230.271 14.584H231.599C231.45 15.416 231.06 16.0507 230.431 16.488C229.802 16.9253 229.002 17.144 228.031 17.144ZM230.303 12.008C230.186 10.3973 229.386 9.592 227.903 9.592C227.231 9.592 226.676 9.80533 226.239 10.232C225.802 10.6587 225.524 11.2507 225.407 12.008H230.303ZM238.885 9.752H234.933V17H233.605V8.632H240.213V17H238.885V9.752ZM244.502 13.768C244.406 14.92 244.203 15.7627 243.894 16.296C243.584 16.8187 243.099 17.08 242.438 17.08C242.299 17.08 242.155 17.0693 242.006 17.048L241.878 17V15.736L241.99 15.768C242.096 15.7893 242.208 15.8 242.326 15.8C242.496 15.8 242.635 15.752 242.742 15.656C242.859 15.5493 242.95 15.384 243.014 15.16C243.088 14.936 243.142 14.728 243.174 14.536C243.206 14.3333 243.243 14.0507 243.286 13.688C243.328 13.304 243.392 12.216 243.478 10.424L243.526 8.632H249.046V17H247.718V9.752H244.71C244.614 12.056 244.544 13.3947 244.502 13.768ZM253.922 17.144C253.1 17.144 252.428 16.9413 251.906 16.536C251.394 16.12 251.138 15.5013 251.138 14.68C251.138 14.2213 251.25 13.8213 251.474 13.48C251.708 13.128 252.028 12.856 252.434 12.664C252.839 12.4613 253.282 12.3173 253.762 12.232C254.242 12.136 254.764 12.088 255.33 12.088H256.53V11.48C256.53 10.808 256.391 10.328 256.114 10.04C255.836 9.74133 255.378 9.592 254.738 9.592C253.586 9.592 252.946 10.0933 252.818 11.096H251.49C251.575 10.2 251.922 9.544 252.53 9.128C253.148 8.70133 253.906 8.488 254.802 8.488C256.839 8.488 257.858 9.48533 257.858 11.48V17H256.53V15.944C255.89 16.744 255.02 17.144 253.922 17.144ZM254.05 16.088C254.775 16.088 255.367 15.912 255.826 15.56C256.295 15.1973 256.53 14.7013 256.53 14.072V13.032H255.378C253.436 13.032 252.466 13.5813 252.466 14.68C252.466 15.6187 252.994 16.088 254.05 16.088ZM266.008 9.752H263.304V17H261.976V9.752H259.272V8.632H266.008V9.752Z" fill="#52525B"/>
</svg>
