<svg>
    <symbol id="share" width="20" height="20" viewBox="0 0 20 20" fill="none" xmlns="http://www.w3.org/2000/svg">
        <path d="M17.3261 10.5055C17.5296 10.3311 17.6313 10.2439 17.6686 10.1401C17.7013 10.0491 17.7013 9.94948 17.6686 9.85842C17.6313 9.75467 17.5296 9.66748 17.3261 9.49311L10.2672 3.44259C9.917 3.14243 9.16667 2.5 9.16667 2.5C9.16667 2.5 9.16667 3.48753 9.16667 3.94876V7.52814C7.38777 7.83935 5.75966 8.74075 4.54976 10.0942C3.23069 11.5697 2.50103 13.4792 2.5 15.4584V15.9684C3.37445 14.915 4.46625 14.063 5.70063 13.4709C6.78891 12.9488 7.96535 12.6395 9.16667 12.5581V16.0498C9.16667 16.511 9.16667 17.2765 9.16667 17.2765C9.16667 17.2765 9.16667 17.2765 11.5 15.5L17.3261 10.5055Z" stroke="#52525B" stroke-linecap="round" stroke-linejoin="round"/>
    </symbol>
    <symbol id="info" width="20" height="20" viewBox="0 0 20 20" fill="none" xmlns="http://www.w3.org/2000/svg">
        <circle cx="10" cy="10" r="9.5" stroke="#52525B"/>
        <path d="M9.42179 7.678H10.5838V15H9.42179V7.678ZM10.5278 5.928C10.3785 6.07733 10.1965 6.152 9.98179 6.152C9.76712 6.152 9.58512 6.07733 9.43579 5.928C9.28646 5.77867 9.21179 5.59667 9.21179 5.382C9.21179 5.16733 9.28646 4.98533 9.43579 4.836C9.58512 4.68667 9.76712 4.612 9.98179 4.612C10.1965 4.612 10.3785 4.68667 10.5278 4.836C10.6771 4.98533 10.7518 5.16733 10.7518 5.382C10.7518 5.59667 10.6771 5.77867 10.5278 5.928Z" fill="#52525B"/>
    </symbol>
    <symbol id="weight" width="20" height="20" viewBox="0 0 20 20" fill="none" xmlns="http://www.w3.org/2000/svg">
        <path d="M10 2.5C15.2467 2.5 19.5 6.75329 19.5 12C19.5 14.5155 18.5211 16.8001 16.9248 18.5H3.0752C1.47887 16.8001 0.5 14.5155 0.5 12C0.5 6.75329 4.75329 2.5 10 2.5Z" stroke="#F22611"/>
        <circle cx="10" cy="12" r="1.5" stroke="#F22611"/>
        <path d="M16 10.3926L11.5 11.5984" stroke="#F22611"/>
        <mask id="mask0_5915_40086" style="mask-type:alpha" maskUnits="userSpaceOnUse" x="1" y="3" width="18" height="18">
            <path d="M10 3C14.9706 3 19 7.02944 19 12C19 16.9706 14.9706 21 10 21C5.02944 21 1 16.9706 1 12C1 7.02944 5.02944 3 10 3ZM10 5C6.13401 5 3 8.13401 3 12C3 15.866 6.13401 19 10 19C13.866 19 17 15.866 17 12C17 8.13401 13.866 5 10 5Z" fill="#D9D9D9"/>
        </mask>
        <g mask="url(#mask0_5915_40086)">
            <path d="M10.0001 2.49929L10.0002 11.9993" stroke="#F22611"/>
            <path d="M14.9077 3.49951L10.0005 11.9997" stroke="#F22611"/>
            <path d="M18 7.38088L10.0003 11.9994" stroke="#F22611"/>
            <path d="M19.5 12L10.0003 12" stroke="#F22611"/>
            <path d="M18.5 16.9072L10.0004 11.9999" stroke="#F22611"/>
            <path d="M5.38138 4.00018L10.0002 12.0003" stroke="#F22611"/>
            <path d="M2 7.38111L10 12" stroke="#F22611"/>
            <path d="M0.5 12L10 12" stroke="#F22611"/>
            <path d="M2 16.6188L10 12" stroke="#F22611"/>
        </g>
    </symbol>
    <symbol id="heart" width="20" height="20" viewBox="0 0 20 20" fill="none" xmlns="http://www.w3.org/2000/svg">
        <path d="M13.4922 2.68457C14.8871 2.30072 16.5118 2.42012 18.0449 3.9668C19.5787 5.51432 19.6991 7.15739 19.3174 8.56934C18.9266 10.0147 18.0045 11.2136 17.4844 11.7383C16.924 12.3035 14.9641 14.2802 13.1445 16.1162C12.2346 17.0344 11.3593 17.918 10.7119 18.5713C10.4241 18.8617 10.181 19.1065 10 19.2891C9.81905 19.1065 9.5759 18.8617 9.28809 18.5713C8.6407 17.918 7.76532 17.0344 6.85547 16.1162C5.03638 14.2805 3.07728 12.3039 2.5166 11.7383C1.99654 11.2137 1.07455 10.0147 0.683594 8.56934C0.301707 7.15722 0.421504 5.51421 1.95508 3.9668C3.48782 2.42035 5.11196 2.30075 6.50684 2.68457C7.93681 3.07811 9.12421 4.00632 9.64453 4.53125L10 4.88965L10.3545 4.53125C10.8748 4.0063 12.0621 3.07811 13.4922 2.68457Z" stroke="#525665"/>
    </symbol>
    <symbol id="trash" width="20" height="20" viewBox="0 0 20 20" fill="none" xmlns="http://www.w3.org/2000/svg">
        <path d="M1 5L19 5" stroke="#525665"/>
        <path d="M4 5L4 15C4 16.6569 5.34314 18 7 18L13 18C14.6569 18 16 16.6569 16 15L16 5" stroke="#525665"/>
        <path d="M7 5L7 4C7 2.89543 7.89543 2 9 2L11 2C12.1046 2 13 2.89543 13 4L13 5" stroke="#525665"/>
    </symbol>
    <symbol id="minus" width="21" height="21" viewBox="0 0 21 21" fill="none" xmlns="http://www.w3.org/2000/svg">
        <rect y="10" width="21" height="1" fill="#52525B"/>
    </symbol>
    <symbol id="plus" width="21" height="21" viewBox="0 0 21 21" fill="none" xmlns="http://www.w3.org/2000/svg">
        <rect y="10" width="21" height="1" fill="#52525B"/>
        <rect x="10" width="1" height="21" fill="#52525B"/>
    </symbol>
    <symbol id="marker" width="20" height="20" viewBox="0 0 20 20" fill="none" xmlns="http://www.w3.org/2000/svg">
        <path d="M10 19C7.49971 15.9378 3 12.2726 3 8C3 4.13401 6.13401 1 10 1C13.866 1 17 4.13401 17 8C17 12.2726 12.5003 15.9378 10 19Z" stroke="#52525B"/>
        <circle cx="10" cy="8" r="2.5" stroke="#52525B"/>
    </symbol>
    <symbol id="question" width="20" height="20" viewBox="0 0 20 20" fill="none" xmlns="http://www.w3.org/2000/svg">
        <circle cx="10" cy="10" r="9.5" stroke="#52525B"/>
        <circle cx="10" cy="14.25" r="0.75" fill="#52525B"/>
        <path d="M7.5 7.5C7.5 6 8.5 5 10 5C11.5 5 12.5 6 12.5 7.5C12.5 9.5 10 9.5 10 11.5C10 12 10 12.5 10 12.5" stroke="#52525B"/>
    </symbol>
    <symbol id="close" width="20" height="20" viewBox="0 0 20 20" fill="none" xmlns="http://www.w3.org/2000/svg">
        <path d="M3 3L17 17" stroke="#52525B"/>
        <path d="M17 3L3 17" stroke="#52525B"/>
    </symbol>
    <symbol id="edit" width="20" height="21" viewBox="0 0 20 21" fill="none" xmlns="http://www.w3.org/2000/svg">
        <path d="M9.99998 17.1662H17.5M2.5 17.1662H3.89545C4.3031 17.1662 4.50693 17.1662 4.69874 17.1202C4.8688 17.0793 5.03138 17.012 5.1805 16.9206C5.34869 16.8175 5.49282 16.6734 5.78107 16.3852L16.25 5.9162C16.9404 5.22585 16.9404 4.10656 16.25 3.4162C15.5597 2.72585 14.4404 2.72585 13.75 3.4162L3.28105 13.8852C2.9928 14.1734 2.84867 14.3175 2.7456 14.4857C2.65422 14.6349 2.58688 14.7974 2.54605 14.9675C2.5 15.1593 2.5 15.3631 2.5 15.7708V17.1662Z" stroke="#52525B" stroke-linecap="round" stroke-linejoin="round"/>
    </symbol>
    <symbol id="lock" width="20" height="21" viewBox="0 0 20 21" fill="none" xmlns="http://www.w3.org/2000/svg">
        <path d="M14.1663 8.83333V7.16667C14.1663 4.86548 12.3009 3 9.99967 3C7.69849 3 5.83301 4.86548 5.83301 7.16667V8.83333M9.99967 12.5833V14.25M7.33301 18H12.6663C14.0665 18 14.7665 18 15.3013 17.7275C15.7717 17.4878 16.1542 17.1054 16.3939 16.635C16.6663 16.1002 16.6663 15.4001 16.6663 14V12.8333C16.6663 11.4332 16.6663 10.7331 16.3939 10.1984C16.1542 9.72795 15.7717 9.3455 15.3013 9.10582C14.7665 8.83333 14.0665 8.83333 12.6663 8.83333H7.33301C5.93288 8.83333 5.23281 8.83333 4.69803 9.10582C4.22763 9.3455 3.84517 9.72795 3.60549 10.1984C3.33301 10.7331 3.33301 11.4332 3.33301 12.8333V14C3.33301 15.4001 3.33301 16.1002 3.60549 16.635C3.84517 17.1054 4.22763 17.4878 4.69803 17.7275C5.23281 18 5.93288 18 7.33301 18Z" stroke="#52525B" stroke-linecap="round" stroke-linejoin="round"/>
    </symbol>
    <symbol id="arrow-right" width="20" height="20" viewBox="0 0 20 20" fill="none" xmlns="http://www.w3.org/2000/svg">
        <rect x="0.25" y="10.25" width="17.5" height="0.5" fill="#52525B" stroke="#52525B" stroke-width="0.5"/>
        <path d="M11 1.5L18.5 10.5L11 19.5" stroke="#52525B"/>
    </symbol>
</svg>