<svg width="15" height="14" viewBox="0 0 15 14" fill="none" xmlns="http://www.w3.org/2000/svg">
<path d="M7.15943 13.75C10.9533 13.75 14.0288 10.728 14.0288 7C14.0288 3.27208 10.9533 0.25 7.15943 0.25C3.36557 0.25 0.290039 3.27208 0.290039 7C0.290039 10.728 3.36557 13.75 7.15943 13.75Z" fill="white"/>
<path fill-rule="evenodd" clip-rule="evenodd" d="M14.0288 7C14.0288 10.728 10.9533 13.75 7.15943 13.75C3.36557 13.75 0.290039 10.728 0.290039 7C0.290039 3.27208 3.36557 0.25 7.15943 0.25C7.90067 0.25 8.61452 0.365363 9.28329 0.578813L7.71766 5.3125H3.14542L2.58671 7H7.15952L5.81999 11.05H7.70907L9.04858 7H14.0288ZM13.8124 5.3125H9.60676L10.9177 1.34889C12.3296 2.25735 13.3803 3.6629 13.8124 5.3125Z" fill="url(#paint0_linear_5612_15487)"/>
<defs>
<linearGradient id="paint0_linear_5612_15487" x1="0.290039" y1="0.25" x2="17.0819" y2="0.25" gradientUnits="userSpaceOnUse">
<stop stop-color="#FF5C4D"/>
<stop offset="0.4" stop-color="#EB469F"/>
<stop offset="1" stop-color="#8341EF"/>
</linearGradient>
</defs>
</svg>
