<svg width="50" height="18" viewBox="0 0 50 18" fill="none" xmlns="http://www.w3.org/2000/svg">
<path d="M31.8876 2.04736V15.5999H29.522V3.88036H25.2992V15.5999H22.9336V2.04736H31.8876Z" fill="black"/>
<path d="M35.8488 15.7949C34.8061 15.7949 34.0045 15.5934 33.4441 15.1904V13.2989C33.7439 13.5069 34.0697 13.6694 34.4216 13.7864C34.7865 13.9034 35.2167 13.9619 35.7119 13.9619C36.4548 13.9619 37.0153 13.7474 37.3932 13.3184C37.7712 12.8764 38.0058 12.2719 38.097 11.5049H34.6758V9.67186H38.0775C37.8559 8.17686 37.087 7.42936 35.7706 7.42936C35.3665 7.42936 34.9625 7.49436 34.5585 7.62436C34.1675 7.75436 33.8547 7.89086 33.6201 8.03386V6.06436C33.8677 5.93436 34.2 5.82386 34.6171 5.73286C35.0342 5.64186 35.536 5.59636 36.1225 5.59636C36.8523 5.59636 37.491 5.72636 38.0384 5.98636C38.5988 6.23336 39.0615 6.58436 39.4265 7.03936C39.8044 7.48136 40.0846 8.02086 40.2671 8.65786C40.4626 9.28186 40.5604 9.96436 40.5604 10.7054C40.5604 12.3564 40.1694 13.6174 39.3874 14.4884C38.6184 15.3594 37.4389 15.7949 35.8488 15.7949Z" fill="black"/>
<path d="M46.0897 4.50436C45.1513 4.50436 44.441 4.27036 43.9587 3.80236C43.4895 3.33436 43.2549 2.74936 43.2549 2.04736H45.2099C45.2099 2.38536 45.2881 2.63236 45.4445 2.78836C45.614 2.94436 45.829 3.02236 46.0897 3.02236C46.3373 3.02236 46.5328 2.94436 46.6762 2.78836C46.8196 2.61936 46.8913 2.37236 46.8913 2.04736H48.8463C48.8463 2.38536 48.7876 2.70386 48.6703 3.00286C48.553 3.30186 48.3771 3.56186 48.1425 3.78286C47.9209 4.00386 47.6342 4.17936 47.2823 4.30936C46.9434 4.43936 46.5459 4.50436 46.0897 4.50436ZM44.3693 5.79136V11.8754L47.9274 5.79136H49.9997V15.5999H47.7515V9.53536L44.1933 15.5999H42.121V5.79136H44.3693Z" fill="black"/>
<rect width="18.0723" height="18" rx="9" fill="#FC3F1D"/>
<path d="M10.3095 14.4089H12.1974V3.60889H9.45142C6.68987 3.60889 5.23889 5.02299 5.23889 7.10529C5.23889 8.76802 6.03459 9.74702 7.45437 10.7571L4.98926 14.4089H7.03312L9.77907 10.322L8.82734 9.68486C7.6728 8.90788 7.11113 8.30184 7.11113 6.99651C7.11113 5.84659 7.92243 5.06961 9.46702 5.06961H10.3095V14.4089Z" fill="white"/>
</svg>
